<?xml version="1.0" encoding="UTF-8"?>
<!--Generator: Apple Native CoreSVG 149-->
<!DOCTYPE svg
PUBLIC "-//W3C//DTD SVG 1.1//EN"
       "http://www.w3.org/Graphics/SVG/1.1/DTD/svg11.dtd">
<svg version="1.1" xmlns="http://www.w3.org/2000/svg" xmlns:xlink="http://www.w3.org/1999/xlink" width="3300" height="2200">
 <!--glyph: "uni100341.medium", point size: 100.000000, font version: "Version 16.0d18e1", template writer version: "8"-->
 <g id="Notes">
  <rect height="2200" id="artboard" style="fill:white;opacity:1" width="3300" x="0" y="0"/>
  <line id="" style="fill:none;stroke:black;opacity:1;stroke-width:0.5;" x1="263" x2="3036" y1="292" y2="292"/>
  <text style="stroke:none;fill:black;font-family:-apple-system,&quot;SF Pro Display&quot;,&quot;SF Pro Text&quot;,Helvetica,sans-serif;font-weight:bold;" transform="matrix(1 0 0 1 263 322)">Weight/Scale Variations</text>
  <text style="stroke:none;fill:black;font-family:-apple-system,&quot;SF Pro Display&quot;,&quot;SF Pro Text&quot;,Helvetica,sans-serif;text-anchor:middle;" transform="matrix(1 0 0 1 559.711 322)">Ultralight</text>
  <text style="stroke:none;fill:black;font-family:-apple-system,&quot;SF Pro Display&quot;,&quot;SF Pro Text&quot;,Helvetica,sans-serif;text-anchor:middle;" transform="matrix(1 0 0 1 856.422 322)">Thin</text>
  <text style="stroke:none;fill:black;font-family:-apple-system,&quot;SF Pro Display&quot;,&quot;SF Pro Text&quot;,Helvetica,sans-serif;text-anchor:middle;" transform="matrix(1 0 0 1 1153.13 322)">Light</text>
  <text style="stroke:none;fill:black;font-family:-apple-system,&quot;SF Pro Display&quot;,&quot;SF Pro Text&quot;,Helvetica,sans-serif;text-anchor:middle;" transform="matrix(1 0 0 1 1449.84 322)">Regular</text>
  <text style="stroke:none;fill:black;font-family:-apple-system,&quot;SF Pro Display&quot;,&quot;SF Pro Text&quot;,Helvetica,sans-serif;text-anchor:middle;" transform="matrix(1 0 0 1 1746.56 322)">Medium</text>
  <text style="stroke:none;fill:black;font-family:-apple-system,&quot;SF Pro Display&quot;,&quot;SF Pro Text&quot;,Helvetica,sans-serif;text-anchor:middle;" transform="matrix(1 0 0 1 2043.27 322)">Semibold</text>
  <text style="stroke:none;fill:black;font-family:-apple-system,&quot;SF Pro Display&quot;,&quot;SF Pro Text&quot;,Helvetica,sans-serif;text-anchor:middle;" transform="matrix(1 0 0 1 2339.98 322)">Bold</text>
  <text style="stroke:none;fill:black;font-family:-apple-system,&quot;SF Pro Display&quot;,&quot;SF Pro Text&quot;,Helvetica,sans-serif;text-anchor:middle;" transform="matrix(1 0 0 1 2636.69 322)">Heavy</text>
  <text style="stroke:none;fill:black;font-family:-apple-system,&quot;SF Pro Display&quot;,&quot;SF Pro Text&quot;,Helvetica,sans-serif;text-anchor:middle;" transform="matrix(1 0 0 1 2933.4 322)">Black</text>
  <line id="" style="fill:none;stroke:black;opacity:1;stroke-width:0.5;" x1="263" x2="3036" y1="1903" y2="1903"/>
  <g id="" transform="matrix(1 0 0 1 263 1933)">
   <path d="M9.24805 0.830078C13.5547 0.830078 17.1387-2.74414 17.1387-7.05078C17.1387-11.3574 13.5449-14.9316 9.23828-14.9316C4.94141-14.9316 1.36719-11.3574 1.36719-7.05078C1.36719-2.74414 4.95117 0.830078 9.24805 0.830078ZM9.24805-0.654297C5.70312-0.654297 2.87109-3.49609 2.87109-7.05078C2.87109-10.6055 5.69336-13.4473 9.23828-13.4473C12.793-13.4473 15.6348-10.6055 15.6445-7.05078C15.6543-3.49609 12.8027-0.654297 9.24805-0.654297ZM6.39648-6.31836L8.50586-6.31836L8.50586-4.19922C8.50586-3.75977 8.79883-3.45703 9.22852-3.45703C9.67773-3.45703 9.9707-3.75977 9.9707-4.19922L9.9707-6.31836L12.0996-6.31836C12.5391-6.31836 12.8418-6.61133 12.8418-7.04102C12.8418-7.48047 12.5391-7.7832 12.0996-7.7832L9.9707-7.7832L9.9707-9.89258C9.9707-10.3418 9.67773-10.6445 9.22852-10.6445C8.79883-10.6445 8.50586-10.3418 8.50586-9.89258L8.50586-7.7832L6.39648-7.7832C5.94727-7.7832 5.64453-7.48047 5.64453-7.04102C5.64453-6.61133 5.94727-6.31836 6.39648-6.31836Z"/>
  </g>
  <g id="" transform="matrix(1 0 0 1 281.506 1933)">
   <path d="M11.709 2.91016C17.1582 2.91016 21.6699-1.61133 21.6699-7.05078C21.6699-12.5 17.1484-17.0117 11.6992-17.0117C6.25977-17.0117 1.74805-12.5 1.74805-7.05078C1.74805-1.61133 6.26953 2.91016 11.709 2.91016ZM11.709 1.25C7.09961 1.25 3.41797-2.44141 3.41797-7.05078C3.41797-11.6602 7.08984-15.3516 11.6992-15.3516C16.3086-15.3516 20-11.6602 20.0098-7.05078C20.0195-2.44141 16.3184 1.25 11.709 1.25ZM7.98828-6.23047L10.8789-6.23047L10.8789-3.32031C10.8789-2.83203 11.2109-2.5 11.6895-2.5C12.1777-2.5 12.5195-2.83203 12.5195-3.32031L12.5195-6.23047L15.4297-6.23047C15.918-6.23047 16.25-6.5625 16.25-7.04102C16.25-7.5293 15.918-7.87109 15.4297-7.87109L12.5195-7.87109L12.5195-10.7617C12.5195-11.2695 12.1777-11.6016 11.6895-11.6016C11.2109-11.6016 10.8789-11.2598 10.8789-10.7617L10.8789-7.87109L7.98828-7.87109C7.48047-7.87109 7.14844-7.5293 7.14844-7.04102C7.14844-6.5625 7.49023-6.23047 7.98828-6.23047Z"/>
  </g>
  <g id="" transform="matrix(1 0 0 1 304.924 1933)">
   <path d="M14.9707 5.66406C21.9336 5.66406 27.6953-0.0976562 27.6953-7.05078C27.6953-14.0137 21.9238-19.7754 14.9609-19.7754C8.00781-19.7754 2.25586-14.0137 2.25586-7.05078C2.25586-0.0976562 8.01758 5.66406 14.9707 5.66406ZM14.9707 3.84766C8.93555 3.84766 4.08203-1.01562 4.08203-7.05078C4.08203-13.0957 8.92578-17.9492 14.9609-17.9492C21.0059-17.9492 25.8594-13.0957 25.8691-7.05078C25.8789-1.01562 21.0156 3.84766 14.9707 3.84766ZM10.0586-6.14258L14.0625-6.14258L14.0625-2.12891C14.0625-1.5918 14.4336-1.2207 14.9512-1.2207C15.4883-1.2207 15.8594-1.5918 15.8594-2.12891L15.8594-6.14258L19.8828-6.14258C20.4102-6.14258 20.791-6.51367 20.791-7.03125C20.791-7.56836 20.4199-7.94922 19.8828-7.94922L15.8594-7.94922L15.8594-11.9531C15.8594-12.5098 15.4883-12.8809 14.9512-12.8809C14.4336-12.8809 14.0625-12.5 14.0625-11.9531L14.0625-7.94922L10.0586-7.94922C9.50195-7.94922 9.13086-7.56836 9.13086-7.03125C9.13086-6.51367 9.51172-6.14258 10.0586-6.14258Z"/>
  </g>
  <text style="stroke:none;fill:black;font-family:-apple-system,&quot;SF Pro Display&quot;,&quot;SF Pro Text&quot;,Helvetica,sans-serif;font-weight:bold;" transform="matrix(1 0 0 1 263 1953)">Design Variations</text>
  <text style="stroke:none;fill:black;font-family:-apple-system,&quot;SF Pro Display&quot;,&quot;SF Pro Text&quot;,Helvetica,sans-serif;" transform="matrix(1 0 0 1 263 1971)">Symbols are supported in up to nine weights and three scales.</text>
  <text style="stroke:none;fill:black;font-family:-apple-system,&quot;SF Pro Display&quot;,&quot;SF Pro Text&quot;,Helvetica,sans-serif;" transform="matrix(1 0 0 1 263 1989)">For optimal layout with text and other symbols, vertically align</text>
  <text style="stroke:none;fill:black;font-family:-apple-system,&quot;SF Pro Display&quot;,&quot;SF Pro Text&quot;,Helvetica,sans-serif;" transform="matrix(1 0 0 1 263 2007)">symbols with the adjacent text.</text>
  <line id="" style="fill:none;stroke:#00AEEF;stroke-width:0.5;opacity:1.0;" x1="776" x2="776" y1="1919" y2="1933"/>
  <g id="" transform="matrix(1 0 0 1 776 1933)">
   <path d="M3.31055 0.126953C3.82812 0.126953 4.08203-0.0683594 4.26758-0.605469L5.52734-4.0625L11.2891-4.0625L12.5488-0.605469C12.7344-0.0683594 12.9883 0.126953 13.4961 0.126953C14.0137 0.126953 14.3457-0.185547 14.3457-0.673828C14.3457-0.839844 14.3164-0.986328 14.2383-1.20117L9.6582-13.3887C9.43359-13.9941 9.0332-14.2871 8.4082-14.2871C7.80273-14.2871 7.39258-13.9941 7.17773-13.3984L2.59766-1.19141C2.51953-0.976562 2.49023-0.830078 2.49023-0.664062C2.49023-0.175781 2.80273 0.126953 3.31055 0.126953ZM6.00586-5.53711L8.37891-12.1094L8.42773-12.1094L10.8008-5.53711Z"/>
  </g>
  <line id="" style="fill:none;stroke:#00AEEF;stroke-width:0.5;opacity:1.0;" x1="792.836" x2="792.836" y1="1919" y2="1933"/>
  <text style="stroke:none;fill:black;font-family:-apple-system,&quot;SF Pro Display&quot;,&quot;SF Pro Text&quot;,Helvetica,sans-serif;font-weight:bold;" transform="matrix(1 0 0 1 776 1953)">Margins</text>
  <text style="stroke:none;fill:black;font-family:-apple-system,&quot;SF Pro Display&quot;,&quot;SF Pro Text&quot;,Helvetica,sans-serif;" transform="matrix(1 0 0 1 776 1971)">Leading and trailing margins on the left and right side of each symbol</text>
  <text style="stroke:none;fill:black;font-family:-apple-system,&quot;SF Pro Display&quot;,&quot;SF Pro Text&quot;,Helvetica,sans-serif;" transform="matrix(1 0 0 1 776 1989)">can be adjusted by modifying the x-location of the margin guidelines.</text>
  <text style="stroke:none;fill:black;font-family:-apple-system,&quot;SF Pro Display&quot;,&quot;SF Pro Text&quot;,Helvetica,sans-serif;" transform="matrix(1 0 0 1 776 2007)">Modifications are automatically applied proportionally to all</text>
  <text style="stroke:none;fill:black;font-family:-apple-system,&quot;SF Pro Display&quot;,&quot;SF Pro Text&quot;,Helvetica,sans-serif;" transform="matrix(1 0 0 1 776 2025)">scales and weights.</text>
  <g id="" transform="matrix(1 0 0 1 1289 1933)">
   <path d="M2.8418 1.86523L4.54102 3.57422C5.40039 4.44336 6.38672 4.38477 7.31445 3.35938L17.4902-7.85156C17.7539-7.76367 18.0273-7.7832 18.3398-7.8418L19.4043-8.03711L20.0684-7.36328L20.0293-6.80664C19.9902-6.30859 20.1172-5.92773 20.6055-5.44922L21.3672-4.70703C21.8457-4.22852 22.4609-4.19922 22.9297-4.66797L25.8398-7.58789C26.3086-8.05664 26.2891-8.65234 25.8105-9.13086L25.0391-9.89258C24.5605-10.3711 24.1895-10.5273 23.7109-10.4883L23.1348-10.4395L22.4902-11.0742L22.7344-12.1973C22.8613-12.7637 22.7051-13.2031 22.1191-13.7891L19.9219-15.9766C16.582-19.2969 12.1484-19.2188 9.25781-16.3281C8.83789-15.918 8.80859-15.3418 9.04297-14.9512C9.27734-14.5898 9.73633-14.3555 10.3809-14.5215C11.8457-14.8633 13.3691-14.9219 14.7949-13.9844L14.209-12.5293C14.0137-12.0508 13.9844-11.6504 14.1113-11.2891L3.04688-0.898438C2.06055 0.0195312 1.98242 0.996094 2.8418 1.86523ZM10.752-15.957C13.1836-17.7344 16.4746-17.4316 18.7012-15.2051L21.1328-12.793C21.3672-12.5586 21.4062-12.373 21.3379-12.0312L21.0156-10.5469L22.5195-9.0625L23.5059-9.12109C23.7598-9.13086 23.8379-9.11133 24.0332-8.91602L24.6094-8.33984L22.168-5.89844L21.5918-6.47461C21.3965-6.66992 21.3672-6.74805 21.377-7.01172L21.4453-7.98828L19.9512-9.47266L18.4277-9.21875C18.1055-9.15039 17.959-9.17969 17.7148-9.41406L15.7129-11.416C15.459-11.6504 15.4297-11.8164 15.5859-12.1875L16.4648-14.2773C14.9023-15.7324 12.8711-16.3574 10.8398-15.7617C10.6836-15.7227 10.625-15.8496 10.752-15.957ZM5.27344 2.30469L4.10156 1.14258C3.63281 0.683594 3.74023 0.341797 4.14062-0.0195312L14.9512-10.1953L16.416-8.71094L6.42578 2.27539C6.07422 2.67578 5.74219 2.77344 5.27344 2.30469Z"/>
  </g>
  <text style="stroke:none;fill:black;font-family:-apple-system,&quot;SF Pro Display&quot;,&quot;SF Pro Text&quot;,Helvetica,sans-serif;font-weight:bold;" transform="matrix(1 0 0 1 1289 1953)">Exporting</text>
  <text style="stroke:none;fill:black;font-family:-apple-system,&quot;SF Pro Display&quot;,&quot;SF Pro Text&quot;,Helvetica,sans-serif;" transform="matrix(1 0 0 1 1289 1971)">Symbols should be outlined when exporting to ensure the</text>
  <text style="stroke:none;fill:black;font-family:-apple-system,&quot;SF Pro Display&quot;,&quot;SF Pro Text&quot;,Helvetica,sans-serif;" transform="matrix(1 0 0 1 1289 1989)">design is preserved when submitting to Xcode.</text>
  <text id="template-version" style="stroke:none;fill:black;font-family:-apple-system,&quot;SF Pro Display&quot;,&quot;SF Pro Text&quot;,Helvetica,sans-serif;text-anchor:end;" transform="matrix(1 0 0 1 3036 1933)">Template v.2.0</text>
  <text style="stroke:none;fill:black;font-family:-apple-system,&quot;SF Pro Display&quot;,&quot;SF Pro Text&quot;,Helvetica,sans-serif;text-anchor:end;" transform="matrix(1 0 0 1 3036 1951)">Requires Xcode 12 or greater</text>
  <text style="stroke:none;fill:black;font-family:-apple-system,&quot;SF Pro Display&quot;,&quot;SF Pro Text&quot;,Helvetica,sans-serif;text-anchor:end;" transform="matrix(1 0 0 1 3036 1969)">Generated from phone.fill.arrow.up.right</text>
  <text style="stroke:none;fill:black;font-family:-apple-system,&quot;SF Pro Display&quot;,&quot;SF Pro Text&quot;,Helvetica,sans-serif;text-anchor:end;" transform="matrix(1 0 0 1 3036 1987)">Typeset at 100 points</text>
  <text style="stroke:none;fill:black;font-family:-apple-system,&quot;SF Pro Display&quot;,&quot;SF Pro Text&quot;,Helvetica,sans-serif;" transform="matrix(1 0 0 1 263 726)">Small</text>
  <text style="stroke:none;fill:black;font-family:-apple-system,&quot;SF Pro Display&quot;,&quot;SF Pro Text&quot;,Helvetica,sans-serif;" transform="matrix(1 0 0 1 263 1156)">Medium</text>
  <text style="stroke:none;fill:black;font-family:-apple-system,&quot;SF Pro Display&quot;,&quot;SF Pro Text&quot;,Helvetica,sans-serif;" transform="matrix(1 0 0 1 263 1586)">Large</text>
 </g>
 <g id="Guides">
  <g id="H-reference" style="fill:#27AAE1;stroke:none;" transform="matrix(1 0 0 1 339 696)">
   <path d="M0.976562 0L3.66211 0L12.9883-24.4629L45.752-24.4629L55.127 0L57.7637 0L30.6152-70.459L28.125-70.459ZM29.3457-67.1387L29.4434-67.1387L44.873-26.709L13.8672-26.709Z"/>
  </g>
  <line id="Baseline-S" style="fill:none;stroke:#27AAE1;opacity:1;stroke-width:0.5;" x1="263" x2="3036" y1="696" y2="696"/>
  <line id="Capline-S" style="fill:none;stroke:#27AAE1;opacity:1;stroke-width:0.5;" x1="263" x2="3036" y1="625.541" y2="625.541"/>
  <g id="H-reference" style="fill:#27AAE1;stroke:none;" transform="matrix(1 0 0 1 339 1126)">
   <path d="M0.976562 0L3.66211 0L12.9883-24.4629L45.752-24.4629L55.127 0L57.7637 0L30.6152-70.459L28.125-70.459ZM29.3457-67.1387L29.4434-67.1387L44.873-26.709L13.8672-26.709Z"/>
  </g>
  <line id="Baseline-M" style="fill:none;stroke:#27AAE1;opacity:1;stroke-width:0.5;" x1="263" x2="3036" y1="1126" y2="1126"/>
  <line id="Capline-M" style="fill:none;stroke:#27AAE1;opacity:1;stroke-width:0.5;" x1="263" x2="3036" y1="1055.54" y2="1055.54"/>
  <g id="H-reference" style="fill:#27AAE1;stroke:none;" transform="matrix(1 0 0 1 339 1556)">
   <path d="M0.976562 0L3.66211 0L12.9883-24.4629L45.752-24.4629L55.127 0L57.7637 0L30.6152-70.459L28.125-70.459ZM29.3457-67.1387L29.4434-67.1387L44.873-26.709L13.8672-26.709Z"/>
  </g>
  <line id="Baseline-L" style="fill:none;stroke:#27AAE1;opacity:1;stroke-width:0.5;" x1="263" x2="3036" y1="1556" y2="1556"/>
  <line id="Capline-L" style="fill:none;stroke:#27AAE1;opacity:1;stroke-width:0.5;" x1="263" x2="3036" y1="1485.54" y2="1485.54"/>
  <line id="left-margin" style="fill:none;stroke:#00AEEF;stroke-width:0.5;opacity:1.0;" x1="1392.15" x2="1392.15" y1="1030.79" y2="1150.12"/>
  <line id="right-margin" style="fill:none;stroke:#00AEEF;stroke-width:0.5;opacity:1.0;" x1="1507.53" x2="1507.53" y1="1030.79" y2="1150.12"/>
 </g>
 <g id="Symbols">
  <g id="Black-L" transform="matrix(1 0 0 1 2855.23 1556)">
   <path d="M49.707-4.98047C69.7266 15.0879 93.6523 30.3223 113.135 30.3223C121.729 30.3223 129.443 27.3438 135.498 20.5078C139.111 16.5039 140.967 12.1582 140.967 7.66602C140.967 3.61328 139.307-0.292969 135.547-3.02734L115.967-16.9434C112.598-19.3848 109.814-20.459 107.422-20.459C104.199-20.459 101.465-18.6035 98.4375-15.5762L93.6523-10.791C92.9199-10.0586 91.9922-9.76562 91.1133-9.76562C90.0879-9.76562 89.0137-10.1562 88.2812-10.5957C84.082-12.9883 77.002-19.2383 70.459-25.7324C63.9648-32.2266 57.7148-39.3555 55.3223-43.5547C54.8828-44.2871 54.4922-45.3613 54.4922-46.3867C54.4922-47.2656 54.7852-48.1934 55.5176-48.9258L60.3027-53.7109C63.3301-56.7383 65.1855-59.4727 65.1855-62.6953C65.1855-65.0879 64.1113-67.8711 61.6699-71.2402L47.7539-90.8203C45.0684-94.5801 41.1133-96.1914 37.0117-96.1914C32.4219-96.1914 28.0762-94.3848 24.2188-90.7715C17.4316-84.6191 14.4531-76.9043 14.4531-68.3105C14.4531-48.8281 29.6387-25 49.707-4.98047ZM93.5059-39.6973C95.6543-39.6973 97.7051-40.5273 99.2188-42.0898L118.994-61.7676L124.609-68.1641L123.486-58.1543L123.486-50.4883C123.486-46.2891 126.855-43.0664 131.299-43.0176C135.742-43.0176 139.209-46.1914 139.209-50.3906L139.209-82.6172C139.209-89.4531 135.352-93.3105 128.467-93.3105L95.752-93.3105C91.5039-93.3105 88.3301-89.8438 88.3789-85.4004C88.4277-80.9082 91.6504-77.5879 95.8496-77.5879L103.906-77.5879L114.355-78.7598L107.666-73.1934L87.8906-53.418C86.2305-51.709 85.3516-49.6094 85.3516-47.2656C85.3516-42.9688 88.7695-39.6973 93.5059-39.6973Z"/>
  </g>
  <g id="Heavy-L" transform="matrix(1 0 0 1 2559.56 1556)">
   <path d="M48.8281-5.51758C68.3105 14.0137 91.7969 28.9551 110.889 28.9551C119.434 28.9551 126.953 26.0254 133.008 19.2871C136.475 15.4297 138.428 11.084 138.428 6.64062C138.428 2.7832 136.914-0.878906 133.301-3.4668L113.818-17.334C110.596-19.6289 107.91-20.6543 105.518-20.6543C102.441-20.6543 99.707-18.8965 96.7285-15.918L91.9922-11.2305C91.2598-10.498 90.332-10.2051 89.502-10.2051C88.4766-10.2051 87.4512-10.5957 86.7676-10.9863C82.666-13.2812 75.6348-19.3848 69.1406-25.8301C62.6953-32.2754 56.5918-39.3066 54.3457-43.4082C53.9062-44.1406 53.5156-45.166 53.5156-46.1426C53.5156-46.9727 53.8086-47.9004 54.541-48.6328L59.2285-53.3691C62.207-56.3965 63.9648-59.082 63.9648-62.207C63.9648-64.5996 62.9395-67.2852 60.6445-70.5078L46.8262-89.8926C44.2383-93.5059 40.4785-95.0684 36.5723-95.0684C32.1289-95.0684 27.832-93.2129 23.9746-89.6484C17.3828-83.5449 14.4531-75.9277 14.4531-67.4805C14.4531-48.3398 29.2969-25 48.8281-5.51758ZM91.5527-40.2344C93.457-40.2344 95.2148-40.9668 96.582-42.334L118.408-64.0625L125-71.3867L123.926-59.375L123.926-50.9277C123.926-47.2168 126.855-44.3848 130.762-44.3359C134.668-44.2871 137.744-47.1191 137.744-50.8789L137.744-84.2285C137.744-90.1367 134.473-93.4082 128.564-93.4082L94.7266-93.4082C91.0156-93.4082 88.1348-90.332 88.1836-86.377C88.2812-82.4707 91.1133-79.5898 94.8242-79.5898L103.613-79.5898L116.016-80.6641L108.447-74.1211L86.6211-52.2949C85.1562-50.7812 84.375-48.9746 84.375-46.875C84.375-43.1152 87.4023-40.2344 91.5527-40.2344Z"/>
  </g>
  <g id="Bold-L" transform="matrix(1 0 0 1 2264 1556)">
   <path d="M47.8027-6.10352C66.6992 12.8418 89.6973 27.4414 108.447 27.4414C116.846 27.4414 124.219 24.5117 130.127 17.9688C133.545 14.209 135.645 9.81445 135.645 5.46875C135.645 1.9043 134.229-1.51367 130.811-3.95508L111.426-17.7246C108.35-19.9219 105.762-20.9473 103.467-20.9473C100.439-20.9473 97.7539-19.2383 94.7754-16.3086L90.1367-11.6699C89.4043-10.9863 88.5254-10.6934 87.6465-10.6934C86.6699-10.6934 85.6934-11.0352 85.0098-11.4258C81.0547-13.623 74.0723-19.5312 67.6758-25.9277C61.2793-32.3242 55.3711-39.2578 53.1738-43.2617C52.832-43.9453 52.4414-44.9219 52.4414-45.8496C52.4414-46.6797 52.7344-47.5586 53.418-48.291L58.0566-53.0273C60.9863-56.0059 62.6953-58.6914 62.6953-61.7188C62.6953-64.0137 61.6699-66.6016 59.4727-69.6777L45.8496-88.8672C43.3594-92.334 39.8438-93.7988 36.084-93.7988C31.7871-93.7988 27.4902-91.9434 23.7305-88.3301C17.2852-82.3242 14.4531-74.8535 14.4531-66.5527C14.4531-47.7539 28.9062-24.9512 47.8027-6.10352ZM89.4043-40.8203C91.0156-40.8203 92.4805-41.4062 93.6523-42.5781L117.725-66.6504L125.391-75.0488L124.414-60.6934L124.414-51.4648C124.414-48.2422 126.904-45.8496 130.176-45.752C133.496-45.7031 136.133-48.1445 136.133-51.3672L136.133-86.0352C136.133-90.8691 133.496-93.5547 128.662-93.5547L93.6035-93.5547C90.3809-93.5547 87.9395-90.8691 87.9883-87.5488C88.0859-84.2285 90.5273-81.7871 93.7012-81.7871L103.271-81.7871L117.871-82.7637L109.277-75.1465L85.2051-51.0742C83.9355-49.7559 83.3008-48.2422 83.3008-46.4355C83.3008-43.2617 85.8887-40.8203 89.4043-40.8203Z"/>
  </g>
  <g id="Semibold-L" transform="matrix(1 0 0 1 1968.1 1556)">
   <path d="M87.8906-41.2109C89.3066-41.2109 90.5762-41.748 91.6504-42.7734L117.285-68.457L125.684-77.5391L124.756-61.6211L124.756-51.8066C124.756-48.9746 126.904-46.8262 129.785-46.7773C132.666-46.6797 135.01-48.877 135.01-51.7578L135.01-87.3047C135.01-91.3574 132.861-93.6035 128.711-93.6035L92.8711-93.6035C89.9902-93.6035 87.7441-91.2598 87.8418-88.3301C87.9395-85.4492 90.0879-83.3008 92.8711-83.3008L103.027-83.3008L119.141-84.2285L109.912-75.8789L84.2285-50.1953C83.1055-49.0234 82.5195-47.7051 82.5195-46.1914C82.5195-43.3594 84.8145-41.2109 87.8906-41.2109ZM47.1191-6.49414C65.625 12.0117 88.2324 26.3672 106.738 26.3672C115.039 26.3672 122.314 23.4863 128.174 17.041C131.543 13.3301 133.691 8.98438 133.691 4.63867C133.691 1.26953 132.373-1.95312 129.102-4.29688L109.766-18.0176C106.787-20.1172 104.297-21.0938 102.002-21.0938C99.0723-21.0938 96.3867-19.4824 93.457-16.5527L88.8184-12.0117C88.1348-11.2793 87.2559-11.0352 86.4258-11.0352C85.4492-11.0352 84.5215-11.377 83.8379-11.7188C79.9316-13.8672 73.0469-19.5801 66.6504-25.9766C60.3027-32.373 54.4922-39.209 52.4414-43.1641C52.0508-43.8477 51.709-44.7754 51.709-45.7031C51.709-46.4844 52.002-47.3633 52.6855-48.0469L57.2266-52.7344C60.1074-55.7617 61.7676-58.3984 61.7676-61.3281C61.7676-63.6719 60.7422-66.1621 58.6914-69.0918L45.1172-88.1836C42.7734-91.5039 39.4043-92.9199 35.791-92.9199C31.543-92.9199 27.2949-91.0156 23.5352-87.4512C17.2363-81.4453 14.4531-74.0723 14.4531-65.918C14.4531-47.3633 28.6133-24.9512 47.1191-6.49414Z"/>
  </g>
  <g id="Medium-L" transform="matrix(1 0 0 1 1672 1556)">
   <path d="M86.7676-41.5039C88.0371-41.5039 89.1602-41.9922 90.0879-42.9199L116.943-69.8242L125.879-79.4434L125-62.3047L125-52.0508C125-49.5605 126.904-47.6074 129.443-47.5098C132.031-47.4121 134.18-49.4629 134.18-52.002L134.18-88.2324C134.18-91.748 132.324-93.6523 128.76-93.6523L92.2852-93.6523C89.6973-93.6523 87.6465-91.5039 87.7441-88.916C87.8418-86.377 89.7949-84.4727 92.2852-84.4727L102.881-84.4727L120.117-85.3516L110.352-76.416L83.4961-49.5605C82.4707-48.4863 81.9824-47.3145 81.9824-45.9473C81.9824-43.457 84.0332-41.5039 86.7676-41.5039ZM46.582-6.78711C64.7949 11.4258 87.1094 25.5371 105.42 25.5371C113.721 25.5371 120.898 22.7051 126.709 16.3086C130.029 12.6953 132.227 8.34961 132.227 4.05273C132.227 0.830078 131.006-2.29492 127.832-4.54102L108.496-18.2617C105.664-20.2637 103.174-21.2402 100.928-21.2402C97.998-21.2402 95.3613-19.6289 92.4316-16.748L87.8418-12.2559C87.1582-11.5723 86.2793-11.2793 85.4492-11.2793C84.5215-11.2793 83.5938-11.6211 82.9102-11.9629C79.0527-14.0137 72.2656-19.6777 65.8691-26.0254C59.5215-32.373 53.8574-39.1602 51.8066-43.0664C51.4648-43.75 51.1719-44.6289 51.1719-45.5566C51.1719-46.3379 51.416-47.168 52.0996-47.8516L56.6406-52.5391C59.4727-55.5664 61.084-58.2031 61.084-61.084C61.084-63.3301 60.1074-65.8203 58.0566-68.6523L44.6289-87.6465C42.2852-90.8691 39.0137-92.2363 35.5469-92.2363C31.3965-92.2363 27.0996-90.332 23.3887-86.7676C17.1875-80.8105 14.4531-73.4863 14.4531-65.4297C14.4531-47.0703 28.418-24.9512 46.582-6.78711Z"/>
  </g>
  <g id="Regular-L" transform="matrix(1 0 0 1 1376.09 1556)">
   <path d="M85.2539-41.8945C86.377-41.8945 87.3047-42.2852 88.1348-43.1152L116.504-71.582L126.172-81.9336L125.342-63.2324L125.342-52.3926C125.342-50.2441 126.953-48.584 129.053-48.4863C131.201-48.3887 133.057-50.1465 133.057-52.3926L133.057-89.502C133.057-92.2852 131.689-93.75 128.809-93.75L91.5039-93.75C89.3066-93.75 87.5-91.8945 87.5977-89.6484C87.6953-87.5488 89.4043-85.9375 91.5039-85.9375L102.637-85.9375L121.338-86.8164L110.938-77.1484L82.5684-48.7305C81.6406-47.8027 81.2012-46.8262 81.2012-45.6543C81.2012-43.5547 82.959-41.8945 85.2539-41.8945ZM45.9473-7.17773C63.7207 10.5957 85.6934 24.5117 103.76 24.5117C111.914 24.5117 119.043 21.6797 124.805 15.4297C128.027 11.8652 130.322 7.51953 130.322 3.22266C130.322 0.195312 129.15-2.7832 126.123-4.88281L106.836-18.5059C104.102-20.459 101.709-21.4355 99.4629-21.4355C96.6797-21.4355 94.043-19.873 91.1133-17.041L86.5723-12.5488C85.8887-11.8652 85.0586-11.6211 84.1797-11.6211C83.3008-11.6211 82.4219-11.9629 81.7383-12.2559C77.9785-14.2578 71.1914-19.7754 64.8926-26.123C58.5449-32.4219 52.9785-39.1113 51.0742-42.9688C50.7324-43.6523 50.4395-44.4824 50.4395-45.3613C50.4395-46.1426 50.6836-46.9238 51.3672-47.6562L55.8105-52.2949C58.6426-55.2734 60.2051-57.9102 60.2051-60.6934C60.2051-62.9883 59.1797-65.332 57.2754-68.1152L43.9453-86.9141C41.6992-90.0391 38.5742-91.3574 35.2051-91.3574C31.1523-91.3574 26.9043-89.4531 23.1934-85.8887C17.1387-79.9805 14.4531-72.7539 14.4531-64.7949C14.4531-46.6797 28.125-24.9512 45.9473-7.17773Z"/>
  </g>
  <g id="Light-L" transform="matrix(1 0 0 1 1080.21 1556)">
   <path d="M83.8867-42.9688C84.7656-42.9688 85.498-43.2617 86.1328-43.8965L116.211-74.0723L125.928-84.2773L125.342-65.2832L125.342-52.4414C125.342-50.7812 126.611-49.4629 128.271-49.3652C129.98-49.3164 131.396-50.6836 131.396-52.4414L131.396-90.332C131.396-92.4805 130.322-93.6035 128.125-93.6035L89.8438-93.6035C88.0859-93.6035 86.6699-92.1387 86.7188-90.4297C86.8164-88.7695 88.1836-87.4512 89.8438-87.4512L103.125-87.4512L122.119-88.1348L111.914-78.418L81.7871-48.291C81.0547-47.5098 80.7129-46.7773 80.7129-45.8496C80.7129-44.1895 82.1289-42.9688 83.8867-42.9688ZM45.2148-7.8125C62.4023 9.42383 84.1309 23.0957 102.148 23.0957C110.449 23.0957 117.529 20.2148 123.34 14.0625C126.465 10.791 129.053 6.39648 129.053 2.14844C129.053-0.78125 127.881-3.61328 124.805-5.76172L105.566-19.2871C103.174-20.9961 100.879-21.9238 98.6328-21.9238C95.8984-21.9238 93.2129-20.5078 90.2344-17.6758L85.6445-13.1836C84.9609-12.5 84.1309-12.207 83.252-12.207C82.4219-12.207 81.5918-12.5 80.9082-12.8418C77.2949-14.6973 70.459-19.9707 63.916-26.5137C57.4219-32.959 52.0996-39.6973 50.293-43.5059C50-44.1895 49.707-44.9707 49.707-45.7031C49.707-46.4355 49.9512-47.2168 50.6348-47.9004L55.127-52.7344C57.9102-55.8105 59.375-58.4961 59.375-61.2305C59.375-63.4766 58.3984-65.7227 56.6406-68.2129L43.6035-86.7188C41.3574-89.8926 38.2324-91.2598 34.9609-91.2598C30.957-91.2598 26.7578-89.3066 23.0957-85.6934C17.0898-79.834 14.4531-72.5586 14.4531-64.6484C14.4531-46.582 27.9297-25 45.2148-7.8125Z"/>
  </g>
  <g id="Thin-L" transform="matrix(1 0 0 1 784.62 1556)">
   <path d="M82.0801-44.3359C82.5684-44.3359 83.1543-44.5801 83.4961-44.9707L115.869-77.3926L125.635-87.3535L125.342-68.0176L125.342-52.4902C125.342-51.416 126.221-50.5859 127.246-50.5371C128.32-50.5371 129.15-51.416 129.15-52.4902L129.15-91.5039C129.15-92.7246 128.516-93.4082 127.148-93.4082L87.5977-93.4082C86.5234-93.4082 85.5957-92.4316 85.5957-91.4062C85.6445-90.332 86.5723-89.4531 87.5977-89.4531L103.809-89.4531L123.145-89.8438L113.184-80.0781L80.8105-47.7051C80.2734-47.168 80.0781-46.7285 80.0781-46.1426C80.0781-45.0684 80.957-44.3359 82.0801-44.3359ZM44.2871-8.59375C60.7422 7.86133 82.0801 21.1914 100.098 21.1914C108.496 21.1914 115.527 18.3105 121.436 12.3047C124.365 9.32617 127.344 4.93164 127.344 0.683594C127.344-2.05078 126.221-4.73633 123.096-6.88477L103.906-20.2637C101.904-21.7285 99.7559-22.6074 97.5098-22.6074C94.873-22.6074 92.0898-21.3867 89.0625-18.5059L84.375-13.9648C83.6914-13.3301 82.9102-13.0371 82.0312-13.0371C81.25-13.0371 80.5176-13.2812 79.7852-13.5742C76.3672-15.332 69.4336-20.2637 62.6465-27.002C55.957-33.6914 50.8789-40.5273 49.3164-44.1895C48.9746-44.873 48.7793-45.5566 48.7793-46.1426C48.7793-46.875 49.0234-47.6074 49.707-48.291L54.1992-53.2715C56.9824-56.4941 58.252-59.2773 58.252-61.8652C58.252-64.1113 57.373-66.2598 55.8594-68.3594L43.2129-86.4258C40.8691-89.6973 37.793-91.1133 34.5703-91.1133C30.7617-91.1133 26.6113-89.1113 22.9492-85.4492C17.041-79.541 14.4531-72.3145 14.4531-64.4531C14.4531-46.4844 27.6855-25.0977 44.2871-8.59375Z"/>
  </g>
  <g id="Ultralight-L" transform="matrix(1 0 0 1 488.471 1556)">
   <path d="M81.1523-45.0195C81.4941-45.0195 81.9336-45.2637 82.1777-45.5078L115.723-79.1016L125.439-88.9648L125.391-69.3848L125.391-52.4902C125.391-51.7578 125.977-51.1719 126.709-51.1719C127.441-51.1719 128.027-51.7578 128.027-52.4902L128.027-92.0898C128.027-92.8223 127.588-93.2617 126.66-93.2617L86.4746-93.2617C85.7422-93.2617 85.0586-92.627 85.0586-91.8945C85.0098-91.1621 85.7422-90.4297 86.4746-90.4297L104.15-90.4297L123.682-90.7227L113.867-80.957L80.3223-47.4121C79.8828-47.0215 79.7852-46.6797 79.7852-46.2891C79.7852-45.5566 80.3711-45.0195 81.1523-45.0195ZM43.7988-9.0332C59.8633 7.03125 81.0059 20.2148 99.0234 20.2148C107.52 20.2148 114.502 17.334 120.459 11.4258C123.291 8.59375 126.465 4.19922 126.465-0.0976562C126.465-2.68555 125.342-5.32227 122.168-7.4707L103.076-20.8008C101.221-22.1191 99.1699-22.998 96.9238-22.998C94.3848-22.998 91.5527-21.8262 88.4766-18.8965L83.6914-14.4043C83.0566-13.7695 82.2754-13.4277 81.3965-13.4277C80.6641-13.4277 79.9805-13.6719 79.248-13.9648C75.9277-15.625 68.8965-20.3613 62.0117-27.2949C55.1758-34.082 50.2441-40.918 48.7793-44.5312C48.4863-45.2637 48.3398-45.8984 48.3398-46.3867C48.3398-47.1191 48.584-47.8516 49.2188-48.4863L53.7109-53.5645C56.543-56.8359 57.666-59.668 57.666-62.207C57.666-64.4531 56.8359-66.5039 55.4199-68.457L42.9688-86.2793C40.625-89.5996 37.5977-91.0645 34.375-91.0645C30.6641-91.0645 26.5625-89.0137 22.8516-85.3027C16.9922-79.4434 14.4531-72.2168 14.4531-64.3555C14.4531-46.4355 27.5879-25.1465 43.7988-9.0332Z"/>
  </g>
  <g id="Black-M" transform="matrix(1 0 0 1 2871.88 1126)">
   <path d="M39.3066-11.4258C55.2246 4.58984 74.2676 16.6992 89.7461 16.6992C96.6309 16.6992 102.734 14.3066 107.617 8.88672C110.449 5.76172 111.865 2.39258 111.865-1.17188C111.865-4.54102 110.498-7.8125 107.275-10.1562L92.0898-20.9961C89.4043-22.9004 87.207-23.7305 85.2539-23.7305C82.7148-23.7305 80.5176-22.3145 78.0762-19.873L74.2676-16.0645C73.7305-15.4785 72.9492-15.2344 72.2656-15.2344C71.4844-15.2344 70.6055-15.5273 70.0195-15.918C66.6992-17.8711 61.0352-22.8027 55.8594-27.9785C50.6836-33.1543 45.752-38.8672 43.7988-42.1387C43.4082-42.7246 43.1152-43.6035 43.1152-44.3848C43.1152-45.0684 43.3594-45.8496 43.8965-46.3867L47.7051-50.1953C50.1465-52.6367 51.6113-54.834 51.6113-57.373C51.6113-59.3262 50.7812-61.5234 48.8281-64.209L37.9883-79.3945C35.7422-82.6172 32.4219-83.9355 29.0527-83.9355C25.4395-83.9355 22.0703-82.5684 18.9941-79.7363C13.5742-74.9023 11.1816-68.75 11.1816-61.9141C11.1816-46.3867 23.291-27.3438 39.3066-11.4258ZM74.3164-38.5742C76.2207-38.5742 78.0762-39.3066 79.3945-40.625L92.8711-54.0039L95.9473-57.6172L95.1172-52.4902L95.1172-46.4844C95.1172-42.7734 98.0957-40.0391 102.051-40.0391C105.957-40.0391 108.936-42.7246 108.936-46.3867L108.936-70.2148C108.936-76.4648 105.322-80.0781 99.0723-80.0781L74.6582-80.0781C70.9961-80.0781 68.3105-77.0508 68.3105-73.1445C68.3105-69.1895 71.0938-66.2109 74.8047-66.2109L81.2012-66.2109L86.8164-67.0898L82.9102-64.0625L69.4336-50.5859C67.9688-49.1211 67.2363-47.2168 67.2363-45.166C67.2363-41.4062 70.166-38.5742 74.3164-38.5742Z"/>
  </g>
  <g id="Heavy-M" transform="matrix(1 0 0 1 2576.07 1126)">
   <path d="M38.5254-11.8164C54.0039 3.71094 72.6074 15.5273 87.7441 15.5273C94.4824 15.5273 100.488 13.2324 105.273 7.91016C108.008 4.83398 109.473 1.46484 109.473-2.00195C109.473-5.17578 108.203-8.25195 105.225-10.4004L90.0391-21.1914C87.4512-23.0469 85.3516-23.8281 83.4473-23.8281C80.957-23.8281 78.8574-22.4609 76.4648-20.0684L72.7051-16.3574C72.168-15.7715 71.4355-15.5273 70.752-15.5273C69.9707-15.5273 69.1406-15.8691 68.5547-16.2109C65.332-18.0664 59.7656-22.8516 54.6875-27.9785C49.5605-33.0566 44.7754-38.623 42.9199-41.8457C42.5781-42.4316 42.2363-43.2617 42.2363-44.043C42.2363-44.7266 42.4805-45.459 43.0664-45.9961L46.7773-49.7559C49.1699-52.1484 50.5371-54.2969 50.5371-56.7383C50.5371-58.6426 49.7559-60.791 47.9004-63.3789L37.1094-78.4668C35.0098-81.4941 31.8848-82.7148 28.6621-82.7148C25.1465-82.7148 21.7773-81.3477 18.7988-78.5156C13.4766-73.7305 11.1816-67.7246 11.1816-61.0352C11.1816-45.8984 22.998-27.2949 38.5254-11.8164ZM72.5586-38.8672C74.2676-38.8672 75.8301-39.502 77.0508-40.6738L92.2852-55.8594L96.4355-60.5469L95.6055-53.2715L95.6055-46.9727C95.6055-43.7012 98.1934-41.2109 101.709-41.2109C105.127-41.1621 107.812-43.6035 107.812-46.875L107.812-71.7773C107.812-77.1484 104.736-80.1758 99.3652-80.1758L74.0234-80.1758C70.752-80.1758 68.3105-77.4902 68.3105-74.0723C68.3594-70.5566 70.8008-67.9688 74.1211-67.9688L80.7617-67.9688L88.4277-68.8477L83.5449-64.7461L68.2617-49.4629C66.9434-48.1934 66.3086-46.5332 66.3086-44.6777C66.3086-41.3574 68.8965-38.8672 72.5586-38.8672Z"/>
  </g>
  <g id="Bold-M" transform="matrix(1 0 0 1 2280.38 1126)">
   <path d="M37.6465-12.3047C52.6855 2.7832 70.8008 14.2578 85.5469 14.2578C92.1387 14.2578 97.9492 12.0117 102.588 6.83594C105.273 3.80859 106.836 0.439453 106.836-2.97852C106.836-5.9082 105.664-8.69141 102.881-10.6934L87.793-21.4355C85.3516-23.1934 83.3008-23.9746 81.4453-23.9746C79.0527-23.9746 76.9531-22.6074 74.6094-20.3125L70.9961-16.6992C70.4102-16.1133 69.7266-15.918 69.043-15.918C68.2617-15.918 67.4805-16.2109 66.9434-16.5039C63.7695-18.2617 58.3496-22.9492 53.3691-27.9785C48.3398-32.959 43.6523-38.3789 41.8945-41.5527C41.6016-42.0898 41.3086-42.8711 41.3086-43.6523C41.3086-44.2871 41.5039-44.9707 42.0898-45.5566L45.7031-49.2188C47.998-51.5625 49.3652-53.6621 49.3652-56.0547C49.3652-57.9102 48.584-59.9609 46.7773-62.4023L36.1328-77.4414C34.1309-80.1758 31.25-81.3477 28.2715-81.3477C24.8535-81.3477 21.4844-79.9316 18.5547-77.1484C13.4277-72.4609 11.2305-66.6016 11.2305-60.0586C11.2305-45.2637 22.6074-27.2949 37.6465-12.3047ZM70.6055-39.209C72.0703-39.209 73.3887-39.7461 74.4141-40.7715L91.6504-57.959L96.9727-63.8672L96.1426-54.1504L96.1426-47.5098C96.1426-44.6777 98.3398-42.5781 101.27-42.5293C104.199-42.4805 106.543-44.6289 106.543-47.4121L106.543-73.4863C106.543-77.8809 104.102-80.3711 99.6582-80.3711L73.291-80.3711C70.459-80.3711 68.3105-78.0273 68.3594-75.0488C68.4082-72.1191 70.5566-69.9707 73.3398-69.9707L80.2734-69.9707L90.2344-70.8008L84.1797-65.5273L66.9434-48.2422C65.8203-47.1191 65.2344-45.752 65.2344-44.1895C65.2344-41.3574 67.5293-39.209 70.6055-39.209Z"/>
  </g>
  <g id="Semibold-M" transform="matrix(1 0 0 1 1984.36 1126)">
   <path d="M69.2871-39.4043C70.5566-39.4043 71.6797-39.8926 72.6074-40.8203L91.2109-59.4238L97.3145-66.1133L96.4844-54.7363L96.4844-47.8516C96.4844-45.3613 98.4375-43.5059 100.977-43.4082C103.564-43.3594 105.664-45.3125 105.664-47.8027L105.664-74.707C105.664-78.418 103.662-80.4688 99.9023-80.4688L72.8027-80.4688C70.2637-80.4688 68.3105-78.3691 68.3594-75.7812C68.457-73.1934 70.3613-71.2891 72.8027-71.2891L79.9316-71.2891L91.4551-72.1191L84.668-66.0645L66.0156-47.4121C64.9902-46.3867 64.502-45.2148 64.502-43.7988C64.502-41.3086 66.5527-39.4043 69.2871-39.4043ZM37.0605-12.5977C51.7578 2.09961 69.5312 13.4277 83.9844 13.4277C90.4785 13.4277 96.1914 11.1328 100.781 6.10352C103.418 3.125 104.98-0.244141 104.98-3.61328C104.98-6.39648 103.906-9.0332 101.318-10.8887L86.2793-21.582C83.8379-23.291 81.8359-24.0723 80.0293-24.0723C77.6855-24.0723 75.6348-22.7539 73.3398-20.459L69.7754-16.8945C69.2383-16.3574 68.5059-16.1621 67.8711-16.1621C67.0898-16.1621 66.3574-16.4551 65.8203-16.748C62.6953-18.457 57.373-23.0469 52.4414-27.9297C47.5098-32.8613 42.9199-38.1836 41.2109-41.3086C40.918-41.8457 40.6738-42.627 40.6738-43.3594C40.6738-43.9941 40.8691-44.6777 41.4062-45.2148L44.9707-48.877C47.2168-51.1719 48.584-53.2227 48.584-55.5664C48.584-57.373 47.7539-59.375 46.0449-61.7676L35.4492-76.709C33.5449-79.2969 30.8594-80.4199 27.9785-80.4199C24.6094-80.4199 21.2891-79.0039 18.3594-76.2207C13.3789-71.582 11.2305-65.8203 11.2305-59.375C11.2305-44.873 22.3633-27.2461 37.0605-12.5977Z"/>
  </g>
  <g id="Medium-M" transform="matrix(1 0 0 1 1688.18 1126)">
   <path d="M68.2617-39.5996C69.3848-39.5996 70.4102-39.9902 71.2402-40.8203L90.918-60.5469L97.6074-67.8223L96.7773-55.1758L96.7773-48.1445C96.7773-45.8984 98.4863-44.1895 100.781-44.0918C103.076-44.043 104.98-45.8008 104.98-48.0957L104.98-75.5859C104.98-78.8086 103.32-80.5664 100.049-80.5664L72.4121-80.5664C70.1172-80.5664 68.3105-78.6621 68.4082-76.3184C68.457-74.0234 70.2148-72.3633 72.4121-72.3633L79.6387-72.3633L92.4316-73.1445L85.0098-66.4551L65.332-46.7773C64.4043-45.8496 63.9648-44.7754 63.9648-43.5547C63.9648-41.3086 65.8203-39.5996 68.2617-39.5996ZM36.6211-12.8418C51.0254 1.61133 68.5547 12.7441 82.8613 12.7441C89.2578 12.7441 94.873 10.498 99.3652 5.51758C102.002 2.58789 103.613-0.78125 103.613-4.15039C103.613-6.73828 102.588-9.27734 100.098-11.0352L85.0586-21.6797C82.7148-23.3398 80.7617-24.1211 79.0039-24.1211C76.709-24.1211 74.6582-22.8516 72.4121-20.6055L68.8477-17.0898C68.3105-16.5527 67.627-16.3086 66.9922-16.3086C66.2109-16.3086 65.4785-16.6016 64.9414-16.8945C61.9141-18.5547 56.6406-23.0469 51.7578-27.9297C46.875-32.8125 42.334-38.0371 40.7227-41.1621C40.4297-41.6992 40.1367-42.3828 40.1367-43.1641C40.1367-43.75 40.332-44.4336 40.918-45.0195L44.4336-48.584C46.6309-50.8789 47.9492-52.8809 47.9492-55.1758C47.9492-56.9824 47.168-58.9355 45.5078-61.2793L34.9121-76.123C33.1055-78.6621 30.5176-79.7363 27.7832-79.7363C24.4629-79.7363 21.1426-78.2715 18.2129-75.4883C13.3789-70.8984 11.2305-65.1855 11.2305-58.8867C11.2305-44.5801 22.168-27.2461 36.6211-12.8418Z"/>
  </g>
  <g id="Regular-M" transform="matrix(1 0 0 1 1392.15 1126)">
   <path d="M66.8945-39.8438C67.8711-39.8438 68.7012-40.1367 69.4336-40.8691L90.4785-61.9629L97.9492-70.0684L97.168-55.7617L97.168-48.4863C97.168-46.582 98.584-45.1172 100.488-45.0195C102.441-44.9219 104.15-46.4844 104.15-48.4863L104.15-76.7578C104.15-79.3457 102.881-80.6641 100.293-80.6641L71.9238-80.6641C69.9219-80.6641 68.3105-79.0039 68.4082-77.002C68.5059-75.0977 70.0195-73.6816 71.9238-73.6816L79.2969-73.6816L93.6523-74.4629L85.4492-66.9922L64.4531-45.8984C63.623-45.1172 63.2324-44.2383 63.2324-43.2129C63.2324-41.3086 64.8438-39.8438 66.8945-39.8438ZM36.0352-13.1348C50.1465 0.976562 67.2852 11.8652 81.2988 11.8652C87.5977 11.8652 93.1152 9.66797 97.5586 4.78516C100.146 1.9043 101.758-1.46484 101.758-4.78516C101.758-7.22656 100.83-9.57031 98.5352-11.2305L83.5449-21.875C81.25-23.4375 79.3457-24.2188 77.5879-24.2188C75.3906-24.2188 73.3887-22.9492 71.1426-20.752L67.6758-17.334C67.1387-16.7969 66.4551-16.5527 65.8203-16.5527C65.0879-16.5527 64.3555-16.8457 63.8672-17.0898C60.8398-18.7012 55.6641-23.1445 50.8301-27.9297C46.0449-32.7148 41.6016-37.8906 40.0391-40.918C39.7949-41.4551 39.502-42.1387 39.502-42.8711C39.502-43.5059 39.6973-44.1406 40.2344-44.6777L43.7012-48.2422C45.8496-50.4883 47.168-52.4414 47.168-54.6875C47.168-56.4453 46.3379-58.3496 44.7266-60.6445L34.2285-75.4395C32.5195-77.7832 30.127-78.8086 27.4902-78.8086C24.2676-78.8086 20.9473-77.3438 18.0664-74.5605C13.3301-70.0195 11.2305-64.4043 11.2305-58.2031C11.2305-44.1895 21.9238-27.1973 36.0352-13.1348Z"/>
  </g>
  <g id="Light-M" transform="matrix(1 0 0 1 1096.2 1126)">
   <path d="M65.6738-40.7715C66.4551-40.7715 67.0898-41.0156 67.6758-41.6016L90.2344-64.209L97.7539-72.168L97.168-57.6172L97.168-48.5352C97.168-47.0215 98.291-45.8496 99.8047-45.8008C101.318-45.752 102.637-46.9727 102.637-48.5352L102.637-77.5391C102.637-79.4922 101.611-80.5176 99.6582-80.5176L70.4102-80.5176C68.8477-80.5176 67.5781-79.1992 67.627-77.6367C67.7246-76.1719 68.8965-75.0488 70.4102-75.0488L79.7363-75.0488L94.3359-75.6348L86.3281-68.1152L63.7695-45.5566C63.0859-44.873 62.8418-44.1895 62.8418-43.3594C62.8418-41.8945 64.0625-40.7715 65.6738-40.7715ZM35.4004-13.6719C48.9746-0.0976562 65.918 10.5957 79.9316 10.5957C86.2793 10.5957 91.7969 8.39844 96.2402 3.56445C98.7305 0.927734 100.635-2.49023 100.635-5.76172C100.635-8.10547 99.707-10.3516 97.3633-12.0117L82.4219-22.5098C80.4199-23.9258 78.6133-24.707 76.8555-24.707C74.707-24.707 72.6562-23.5352 70.3613-21.3379L66.7969-17.8711C66.3086-17.334 65.625-17.1387 64.9902-17.1387C64.3066-17.1387 63.623-17.3828 63.0859-17.627C60.2051-19.1406 54.9805-23.291 50-28.2715C45.0684-33.252 40.7715-38.4277 39.3555-41.4062C39.1113-41.9434 38.8672-42.5781 38.8672-43.1641C38.8672-43.7988 39.0625-44.3848 39.5996-44.9219L43.0664-48.584C45.2148-50.9277 46.3867-52.9785 46.3867-55.127C46.3867-56.8848 45.6543-58.6914 44.1895-60.7422L33.9844-75.2441C32.2266-77.6367 29.834-78.7109 27.2461-78.7109C24.1211-78.7109 20.8496-77.1973 17.9688-74.4141C13.2812-69.873 11.2305-64.2578 11.2305-58.0566C11.2305-44.0918 21.7773-27.2949 35.4004-13.6719Z"/>
  </g>
  <g id="Thin-M" transform="matrix(1 0 0 1 800.49 1126)">
   <path d="M64.0625-41.9922C64.502-41.9922 64.9902-42.1875 65.332-42.5293L89.9414-67.1875L97.4609-74.9512L97.168-60.0586L97.168-48.584C97.168-47.6562 97.9492-46.875 98.877-46.875C99.8047-46.8262 100.635-47.6074 100.635-48.584L100.635-78.6133C100.635-79.7363 100-80.3223 98.7793-80.3223L68.4082-80.3223C67.4316-80.3223 66.6016-79.4922 66.6504-78.5156C66.6504-77.5879 67.4805-76.8066 68.4082-76.8066L80.3223-76.8066L95.2637-77.1484L87.5-69.6289L62.8906-45.0195C62.4023-44.5801 62.2559-44.1406 62.2559-43.6035C62.2559-42.6758 63.0371-41.9922 64.0625-41.9922ZM34.5703-14.4043C47.4609-1.51367 64.0625 8.88672 78.0273 8.88672C84.5215 8.88672 89.9902 6.68945 94.5312 2.00195C96.875-0.390625 99.0723-3.80859 99.0723-7.08008C99.0723-9.22852 98.1934-11.3281 95.8008-13.0371L80.9082-23.4375C79.248-24.6094 77.5879-25.293 75.8301-25.293C73.7793-25.293 71.6309-24.3164 69.3359-22.0703L65.6738-18.6035C65.1855-18.0664 64.5508-17.8223 63.8672-17.8223C63.2812-17.8223 62.6465-18.0664 62.1094-18.3105C59.4238-19.6777 54.0527-23.5352 48.8281-28.7598C43.7012-33.8867 39.6973-39.1602 38.4766-41.9922C38.1836-42.5781 38.0371-43.1152 38.0371-43.6035C38.0371-44.1895 38.2324-44.7754 38.7207-45.2637L42.2363-49.1211C44.3848-51.5625 45.4102-53.7109 45.4102-55.7129C45.4102-57.4707 44.7266-59.1797 43.457-60.8887L33.5938-74.9512C31.7871-77.4902 29.4434-78.5645 26.9043-78.5645C23.9258-78.5645 20.7031-77.0508 17.8223-74.1699C13.2324-69.6289 11.2305-64.0137 11.2305-57.9102C11.2305-43.9941 21.5332-27.3438 34.5703-14.4043Z"/>
  </g>
  <g id="Ultralight-M" transform="matrix(1 0 0 1 504.291 1126)">
   <path d="M63.2324-42.627C63.5254-42.627 63.8672-42.7734 64.1113-43.0176L89.7461-68.75L97.3145-76.3672L97.2168-61.2793L97.2168-48.584C97.2168-47.9492 97.7539-47.4121 98.3887-47.4121C99.0723-47.4121 99.6094-47.9492 99.6094-48.584L99.6094-79.1016C99.6094-79.834 99.1699-80.2734 98.3398-80.2734L67.3828-80.2734C66.6992-80.2734 66.1133-79.6387 66.1133-79.0039C66.1133-78.3203 66.6992-77.7344 67.3828-77.7344L80.6152-77.7344L95.752-77.9785L88.0859-70.4102L62.4512-44.7754C62.0605-44.4336 61.9629-44.0918 61.9629-43.75C61.9629-43.0664 62.5-42.627 63.2324-42.627ZM34.1309-14.7949C46.6797-2.24609 63.1348 8.05664 77.0996 8.05664C83.6426 8.05664 89.0625 5.81055 93.6523 1.17188C95.8984-1.02539 98.291-4.44336 98.291-7.76367C98.291-9.81445 97.4121-11.8652 94.9707-13.5742L80.1758-23.877C78.6621-24.9512 77.0508-25.6348 75.3418-25.6348C73.3398-25.6348 71.1426-24.707 68.75-22.4609L65.0879-18.9453C64.5996-18.457 63.9648-18.2129 63.2812-18.2129C62.7441-18.2129 62.1582-18.4082 61.6211-18.6523C58.9844-19.9707 53.5645-23.6816 48.2422-29.0039C43.0176-34.2285 39.1602-39.5508 37.9883-42.334C37.7441-42.8711 37.5977-43.4082 37.5977-43.7988C37.5977-44.3848 37.793-44.9219 38.3301-45.4102L41.7969-49.3652C43.9941-51.8555 44.9219-54.0527 44.9219-56.0547C44.9219-57.7637 44.2383-59.375 43.1152-60.9375L33.3984-74.8047C31.5918-77.3926 29.248-78.5156 26.7578-78.5156C23.8281-78.5156 20.6543-76.9531 17.7734-74.0723C13.2324-69.5312 11.2305-63.916 11.2305-57.8125C11.2305-43.8965 21.4355-27.3926 34.1309-14.7949Z"/>
  </g>
  <g id="Black-S" transform="matrix(1 0 0 1 2885.26 696)">
   <path d="M30.7617-16.6016C43.2129-4.10156 58.1055 5.37109 70.2148 5.37109C75.5859 5.37109 80.3711 3.51562 84.1797-0.732422C86.377-3.17383 87.5-5.81055 87.5-8.59375C87.5-11.2305 86.4258-13.7695 83.9355-15.5762L72.0215-24.0723C69.9219-25.5859 68.2129-26.2207 66.6992-26.2207C64.6973-26.2207 62.9883-25.0977 61.084-23.1934L58.1055-20.2148C57.666-19.7754 57.0801-19.5801 56.543-19.5801C55.9082-19.5801 55.2246-19.8242 54.7852-20.1172C52.1973-21.6309 47.7539-25.4883 43.7012-29.541C39.6484-33.5938 35.791-38.0371 34.2773-40.625C33.9844-41.0645 33.7402-41.748 33.7402-42.3828C33.7402-42.9199 33.9355-43.5059 34.375-43.9453L37.3535-46.9238C39.2578-48.8281 40.3809-50.5371 40.3809-52.5391C40.3809-54.0527 39.7461-55.7617 38.2324-57.8613L29.7363-69.7754C27.9785-72.2656 25.3906-73.291 22.7539-73.291C19.9219-73.291 17.2852-72.2168 14.8926-70.0195C10.6445-66.2109 8.78906-61.4258 8.78906-56.0547C8.78906-43.9453 18.2617-29.0527 30.7617-16.6016ZM58.1055-37.8418C59.5703-37.8418 60.9863-38.4277 62.0117-39.4531L72.7051-50.0488L75.1953-52.9785L74.5605-48.7793L74.5605-44.0918C74.5605-41.2109 76.8555-39.0625 79.9316-39.0625C82.959-39.0625 85.2539-41.1621 85.2539-43.9941L85.2539-62.7441C85.2539-67.5781 82.4707-70.3613 77.6367-70.3613L58.4473-70.3613C55.6152-70.3613 53.5156-68.0176 53.5156-64.9902C53.5156-61.9141 55.6641-59.6191 58.5449-59.6191L63.5742-59.6191L68.1152-60.3027L64.9902-57.8613L54.2969-47.168C53.1738-46.0449 52.5879-44.5801 52.5879-42.9688C52.5879-40.0391 54.8828-37.8418 58.1055-37.8418Z"/>
  </g>
  <g id="Heavy-S" transform="matrix(1 0 0 1 2589.15 696)">
   <path d="M30.2246-16.8457C42.4316-4.63867 56.9824 4.63867 68.8477 4.63867C74.1211 4.63867 78.7598 2.83203 82.5195-1.31836C84.668-3.75977 85.791-6.39648 85.791-9.13086C85.791-11.6211 84.8145-14.0137 82.4707-15.6738L70.6055-24.1699C68.5547-25.6348 66.8945-26.2695 65.3809-26.2695C63.4277-26.2695 61.7676-25.1465 59.9121-23.291L56.9824-20.3613C56.543-19.9219 56.0059-19.7754 55.4688-19.7754C54.834-19.7754 54.1504-20.0195 53.7598-20.2637C51.1719-21.7285 46.875-25.5371 42.8711-29.4922C38.916-33.4473 35.1074-37.793 33.6426-40.332C33.3984-40.7715 33.1543-41.4551 33.1543-42.0898C33.1543-42.5781 33.3496-43.1641 33.7891-43.6035L36.6699-46.5332C38.5254-48.3887 39.6484-50.0488 39.6484-52.002C39.6484-53.4668 39.0137-55.1758 37.5488-57.2266L29.1016-69.0918C27.4414-71.3867 25-72.3633 22.5098-72.3633C19.7266-72.3633 17.0898-71.2891 14.7461-69.0918C10.5957-65.332 8.78906-60.6445 8.78906-55.4199C8.78906-43.5547 18.0176-29.0039 30.2246-16.8457ZM56.8848-37.9883C58.2031-37.9883 59.4727-38.4766 60.4004-39.4043L72.3145-51.2207L75.5859-54.9805L74.9023-49.1699L74.9023-44.4336C74.9023-41.8457 76.9531-39.8926 79.7363-39.8926C82.4219-39.8438 84.5703-41.7969 84.5703-44.3848L84.5703-63.8672C84.5703-68.0664 82.1777-70.459 77.9297-70.459L58.1055-70.459C55.5176-70.459 53.6133-68.3594 53.6133-65.625C53.6133-62.8418 55.5664-60.8398 58.2031-60.8398L63.1836-60.8398L69.2871-61.5234L65.332-58.252L53.4668-46.3867C52.4414-45.3613 51.9043-44.043 51.9043-42.5781C51.9043-39.9414 54.0039-37.9883 56.8848-37.9883Z"/>
  </g>
  <g id="Bold-S" transform="matrix(1 0 0 1 2293.13 696)">
   <path d="M29.6387-17.1387C41.5039-5.22461 55.7617 3.80859 67.2852 3.80859C72.4121 3.80859 77.002 2.05078 80.6152-2.00195C82.7637-4.44336 83.8867-7.08008 83.8867-9.76562C83.8867-12.0605 83.0078-14.2578 80.8594-15.8203L68.9941-24.2676C66.9922-25.6836 65.3809-26.3184 63.916-26.3184C62.0117-26.3184 60.4004-25.1953 58.5938-23.3887L55.7617-20.5566C55.3223-20.1172 54.7852-19.9707 54.248-19.9707C53.6133-19.9707 52.9785-20.2148 52.5879-20.459C50.0977-21.875 45.8496-25.5859 41.9922-29.4434C38.0859-33.3008 34.375-37.5488 32.959-40.0391C32.7148-40.4785 32.5195-41.1133 32.5195-41.748C32.5195-42.2363 32.666-42.7734 33.1055-43.2129L35.9375-46.0938C37.7441-47.9004 38.8184-49.5117 38.8184-51.416C38.8184-52.832 38.1836-54.4922 36.7676-56.4941L28.3691-68.3105C26.8066-70.459 24.5605-71.3379 22.2168-71.3379C19.4824-71.3379 16.8457-70.2637 14.5508-68.0664C10.5469-64.4043 8.78906-59.8145 8.78906-54.6875C8.78906-43.1152 17.7734-29.0039 29.6387-17.1387ZM55.5664-38.0859C56.7383-38.0859 57.7637-38.5254 58.6426-39.4043L71.8262-52.5879L76.0254-57.2266L75.3418-49.6094L75.3418-44.873C75.3418-42.5781 77.0996-40.8203 79.4922-40.7715C81.8848-40.7227 83.7891-42.4805 83.7891-44.8242L83.7891-65.0879C83.7891-68.6523 81.8359-70.6055 78.2227-70.6055L57.7637-70.6055C55.4199-70.6055 53.6621-68.7012 53.7109-66.3086C53.7598-63.916 55.5176-62.1582 57.8125-62.1582L62.7441-62.1582L70.5566-62.8418L65.7227-58.6914L52.5391-45.459C51.6113-44.5801 51.1719-43.457 51.1719-42.1875C51.1719-39.8438 53.0273-38.0859 55.5664-38.0859Z"/>
  </g>
  <g id="Semibold-S" transform="matrix(1 0 0 1 1996.9 696)">
   <path d="M54.5898-38.1836C55.6641-38.1836 56.6406-38.5742 57.373-39.3555L71.5332-53.4668L76.3184-58.7891L75.5859-49.9023L75.5859-45.1172C75.5859-43.0664 77.1973-41.4551 79.3457-41.4062C81.4941-41.3574 83.252-42.9688 83.252-45.1172L83.252-65.918C83.252-69.043 81.5918-70.7031 78.4668-70.7031L57.4707-70.7031C55.3711-70.7031 53.7598-68.9941 53.8086-66.7969C53.8574-64.6484 55.4688-63.0859 57.5195-63.0859L62.4023-63.0859L71.4355-63.7695L66.0156-59.0332L51.9043-44.873C51.0742-44.043 50.6348-43.0664 50.6348-41.8945C50.6348-39.7949 52.3438-38.1836 54.5898-38.1836ZM29.248-17.334C40.918-5.66406 54.8828 3.27148 66.2598 3.27148C71.2891 3.27148 75.7812 1.51367 79.2969-2.49023C81.4453-4.88281 82.5684-7.51953 82.5684-10.1562C82.5684-12.3535 81.7383-14.4531 79.7363-15.8691L67.9199-24.3164C65.918-25.6836 64.3555-26.3184 62.9395-26.3184C61.084-26.3184 59.4727-25.2441 57.7148-23.4863L54.9316-20.7031C54.4922-20.2637 53.9062-20.1172 53.418-20.1172C52.7832-20.1172 52.1973-20.3613 51.7578-20.5566C49.3164-21.9238 45.166-25.5859 41.3574-29.3945C37.5488-33.2031 33.8867-37.3535 32.5195-39.8438C32.2754-40.2344 32.0312-40.8691 32.0312-41.5039C32.0312-41.9922 32.2266-42.5293 32.666-42.9688L35.4004-45.752C37.207-47.5586 38.2812-49.1211 38.2812-50.9766C38.2812-52.3926 37.6465-54.0039 36.2305-55.957L27.832-67.7734C26.3672-69.7754 24.2676-70.6543 21.9727-70.6543C19.3359-70.6543 16.6992-69.5312 14.4043-67.3828C10.498-63.7207 8.78906-59.2285 8.78906-54.1992C8.78906-42.8223 17.5781-28.9551 29.248-17.334Z"/>
  </g>
  <g id="Medium-S" transform="matrix(1 0 0 1 1700.56 696)">
   <path d="M53.9062-38.2812C54.8828-38.2812 55.7129-38.623 56.4453-39.3555L71.2891-54.1992L76.5137-59.9609L75.7812-50.1465L75.7812-45.3613C75.7812-43.4082 77.2461-41.9434 79.1992-41.8945C81.1523-41.7969 82.8125-43.3594 82.8125-45.3125L82.8125-66.5527C82.8125-69.3359 81.3965-70.8008 78.6133-70.8008L57.2754-70.8008C55.3223-70.8008 53.7598-69.1895 53.8574-67.1387C53.9551-65.2344 55.4199-63.7695 57.3242-63.7695L62.207-63.7695L72.1191-64.502L66.2109-59.2285L51.416-44.3848C50.6348-43.6035 50.2441-42.7246 50.2441-41.6504C50.2441-39.7461 51.8066-38.2812 53.9062-38.2812ZM28.9062-17.4805C40.4297-5.95703 54.248 2.83203 65.4297 2.83203C70.4102 2.83203 74.8535 1.12305 78.3203-2.83203C80.4199-5.22461 81.5918-7.86133 81.5918-10.498C81.5918-12.5977 80.8105-14.5996 78.8574-15.9668L67.0898-24.3652C65.1367-25.7324 63.5742-26.3672 62.1582-26.3672C60.3027-26.3672 58.7891-25.293 57.0312-23.5352L54.248-20.8008C53.8574-20.3613 53.2715-20.2148 52.7832-20.2148C52.1484-20.2148 51.5625-20.459 51.1719-20.6543C48.7305-22.0215 44.6289-25.6348 40.8691-29.3945C37.1094-33.1543 33.4961-37.207 32.1289-39.6973C31.9336-40.0879 31.6895-40.6738 31.6895-41.3086C31.6895-41.7969 31.8359-42.334 32.2754-42.7734L35.0098-45.5078C36.7676-47.2656 37.8418-48.8281 37.8418-50.6836C37.8418-52.0508 37.207-53.6621 35.8398-55.6152L27.4414-67.334C26.0742-69.2871 24.0234-70.1172 21.8262-70.1172C19.2383-70.1172 16.6016-68.9941 14.3066-66.8457C10.498-63.2324 8.78906-58.7402 8.78906-53.8086C8.78906-42.5781 17.4316-28.9551 28.9062-17.4805Z"/>
  </g>
  <g id="Regular-S" transform="matrix(1 0 0 1 1404.31 696)">
   <path d="M52.9785-38.3789C53.8574-38.3789 54.5898-38.6719 55.2246-39.3066L70.9473-55.0781L76.8066-61.5234L76.0742-50.4395L76.0742-45.6055C76.0742-43.8965 77.3438-42.5781 79.0527-42.5293C80.7617-42.4316 82.2754-43.8477 82.2754-45.6055L82.2754-67.3828C82.2754-69.7266 81.1523-70.8984 78.8574-70.8984L57.0312-70.8984C55.2734-70.8984 53.8574-69.4336 53.9551-67.627C54.0039-65.918 55.3711-64.6973 57.0312-64.6973L61.8652-64.6973L72.998-65.4297L66.5039-59.5703L50.7812-43.7988C50.0488-43.0664 49.7559-42.334 49.7559-41.4062C49.7559-39.6973 51.1719-38.3789 52.9785-38.3789ZM28.5156-17.6758C39.7949-6.34766 53.418 2.29492 64.4043 2.29492C69.2871 2.29492 73.6328 0.585938 77.0508-3.32031C79.1504-5.66406 80.2734-8.30078 80.2734-10.8887C80.2734-12.8906 79.541-14.7461 77.7344-16.0156L65.9668-24.4141C64.0625-25.7812 62.5488-26.3672 61.1816-26.3672C59.375-26.3672 57.8613-25.3418 56.1035-23.6328L53.418-20.9473C52.9785-20.5078 52.4414-20.3613 51.9531-20.3613C51.3672-20.3613 50.7812-20.6055 50.3906-20.8008C47.9492-22.0703 43.9453-25.6836 40.2344-29.3457C36.5723-33.0566 32.959-37.0605 31.6895-39.4531C31.4941-39.8926 31.25-40.4297 31.25-41.0645C31.25-41.5527 31.3965-42.0898 31.8359-42.5293L34.5215-45.2148C36.2305-46.9238 37.3047-48.4863 37.3047-50.2441C37.3047-51.6113 36.6699-53.1738 35.3027-55.0781L26.9531-66.7969C25.6348-68.6523 23.7305-69.4336 21.6309-69.4336C19.0918-69.4336 16.4551-68.3105 14.209-66.1133C10.4492-62.5488 8.78906-58.1543 8.78906-53.3203C8.78906-42.2852 17.2363-28.9062 28.5156-17.6758Z"/>
  </g>
  <g id="Light-S" transform="matrix(1 0 0 1 1108.26 696)">
   <path d="M51.9043-39.209C52.5879-39.209 53.1738-39.4531 53.6621-39.9414L70.752-57.0801L76.6113-63.3789L76.0742-52.0508L76.0742-45.6543C76.0742-44.3359 77.0996-43.2617 78.418-43.2129C79.7852-43.1641 80.957-44.2383 80.957-45.6543L80.957-68.1152C80.957-69.873 80.0781-70.752 78.2715-70.752L55.7129-70.752C54.2969-70.752 53.1738-69.6289 53.2715-68.2129C53.3203-66.8945 54.3945-65.918 55.7129-65.918L62.3047-65.918L73.6328-66.4551L67.2852-60.5469L50.1953-43.457C49.6094-42.8711 49.3652-42.2852 49.3652-41.5527C49.3652-40.2344 50.4395-39.209 51.9043-39.209ZM27.9785-18.1641C38.8184-7.32422 52.1484 1.17188 63.1348 1.17188C68.1152 1.17188 72.4121-0.585938 75.8789-4.3457C77.8809-6.54297 79.248-9.17969 79.248-11.7676C79.248-13.623 78.5645-15.4297 76.709-16.748L64.9902-25C63.3301-26.2207 61.8652-26.8066 60.498-26.8066C58.7891-26.8066 57.1777-25.8301 55.4199-24.1211L52.6855-21.4355C52.2461-20.9961 51.709-20.8496 51.2207-20.8496C50.6348-20.8496 50.0977-21.0449 49.707-21.2402C47.4121-22.4609 43.3105-25.8301 39.502-29.6387C35.6445-33.4961 32.2754-37.5488 31.1035-39.8926C30.9082-40.2832 30.7129-40.8203 30.7129-41.3574C30.7129-41.7969 30.8594-42.334 31.25-42.7246L33.9844-45.5566C35.6934-47.3633 36.6211-48.9258 36.6211-50.6836C36.6211-52.0508 36.0352-53.4668 34.8145-55.1758L26.709-66.6504C25.3418-68.5059 23.4863-69.3359 21.4355-69.3359C18.9453-69.3359 16.3574-68.1641 14.1113-65.9668C10.4004-62.4023 8.78906-58.0078 8.78906-53.1738C8.78906-42.1875 17.0898-28.9551 27.9785-18.1641Z"/>
  </g>
  <g id="Thin-S" transform="matrix(1 0 0 1 812.428 696)">
   <path d="M50.4883-40.2832C50.8789-40.2832 51.2695-40.4785 51.6113-40.7715L70.5078-59.7168L76.3672-65.8203L76.123-54.1992L76.123-45.6543C76.123-44.8242 76.7578-44.1406 77.6367-44.1406C78.4668-44.0918 79.1992-44.8242 79.1992-45.6543L79.1992-68.9941C79.1992-70.0195 78.6621-70.6055 77.5391-70.6055L53.9551-70.6055C53.0762-70.6055 52.3438-69.873 52.3926-68.9941C52.3926-68.1641 53.125-67.4805 53.9551-67.4805L62.793-67.4805L74.4141-67.7734L68.3105-61.9141L49.4141-43.0176C49.0234-42.627 48.877-42.2363 48.877-41.748C48.877-40.918 49.5605-40.2832 50.4883-40.2832ZM27.2461-18.7988C37.4512-8.54492 50.5371-0.341797 61.4746-0.341797C66.5527-0.341797 70.8496-2.05078 74.4141-5.76172C76.2207-7.66602 77.9297-10.3516 77.9297-12.9395C77.9297-14.6484 77.1973-16.3086 75.3418-17.627L63.6719-25.8301C62.3047-26.7578 60.9863-27.3438 59.6191-27.3438C57.959-27.3438 56.2988-26.5137 54.4922-24.7559L51.6602-22.0703C51.2695-21.6309 50.7812-21.4844 50.2441-21.4844C49.7559-21.4844 49.2676-21.6309 48.8281-21.8262C46.6797-22.9492 42.5293-26.0254 38.4766-30.0781C34.4727-34.0332 31.2988-38.1836 30.2734-40.4297C30.0781-40.8691 29.9805-41.3086 29.9805-41.6992C29.9805-42.1387 30.127-42.627 30.5176-43.0176L33.252-45.9961C34.9609-47.9004 35.7422-49.5605 35.7422-51.1719C35.7422-52.5391 35.2051-53.9062 34.1797-55.2734L26.3672-66.4062C25-68.3594 23.1445-69.2383 21.1426-69.2383C18.75-69.2383 16.2598-68.0176 14.0137-65.8203C10.4004-62.2559 8.78906-57.8613 8.78906-53.0273C8.78906-42.0898 16.9434-29.0527 27.2461-18.7988Z"/>
  </g>
  <g id="Ultralight-S" transform="matrix(1 0 0 1 516.181 696)">
   <path d="M49.707-40.8203C50-40.8203 50.3418-41.0156 50.5371-41.2109L70.3613-61.084L76.2695-67.0898L76.123-55.3223L76.123-45.7031C76.123-45.1172 76.6113-44.6289 77.1973-44.6289C77.7832-44.6289 78.2715-45.1172 78.2715-45.7031L78.2715-69.4824C78.2715-70.166 77.8809-70.5078 77.1484-70.5078L53.0273-70.5078C52.4414-70.5078 51.9043-69.9707 51.9043-69.3848C51.9043-68.7988 52.4414-68.2617 53.0273-68.2617L63.0859-68.2617L74.8535-68.5059L68.8477-62.5977L49.0234-42.7734C48.6816-42.4805 48.584-42.1875 48.584-41.8457C48.584-41.2598 49.0723-40.8203 49.707-40.8203ZM26.8555-19.0918C36.7676-9.17969 49.707-1.07422 60.6445-1.07422C65.7715-1.07422 70.0195-2.83203 73.6328-6.49414C75.3906-8.25195 77.1973-10.9375 77.1973-13.5254C77.1973-15.1855 76.5137-16.7969 74.6094-18.1152L62.9883-26.2207C61.7676-27.0996 60.498-27.6367 59.1309-27.6367C57.5684-27.6367 55.8594-26.8555 54.0039-25.0977L51.123-22.3633C50.7324-21.9727 50.2441-21.7773 49.707-21.7773C49.2676-21.7773 48.8281-21.9727 48.3887-22.168C46.3379-23.1934 42.0898-26.123 37.9395-30.2734C33.8867-34.375 30.8105-38.4766 29.8828-40.7227C29.6875-41.1621 29.5898-41.5527 29.5898-41.8945C29.5898-42.334 29.7363-42.7734 30.127-43.1641L32.8613-46.2402C34.5703-48.1934 35.3027-49.9023 35.3027-51.4648C35.3027-52.832 34.7656-54.1016 33.8867-55.3711L26.2207-66.3086C24.8047-68.2617 22.9492-69.1406 20.9961-69.1406C18.6523-69.1406 16.1621-67.9199 13.916-65.6738C10.3516-62.1094 8.78906-57.7148 8.78906-52.9297C8.78906-42.041 16.7969-29.1016 26.8555-19.0918Z"/>
  </g>
 </g>
</svg>
