<?xml version="1.0" encoding="UTF-8"?>
<!--Generator: Apple Native CoreSVG 149-->
<!DOCTYPE svg
PUBLIC "-//W3C//DTD SVG 1.1//EN"
       "http://www.w3.org/Graphics/SVG/1.1/DTD/svg11.dtd">
<svg version="1.1" xmlns="http://www.w3.org/2000/svg" xmlns:xlink="http://www.w3.org/1999/xlink" width="3300" height="2200">
 <!--glyph: "uni100238.medium", point size: 100.000000, font version: "Version 16.0d18e1", template writer version: "8"-->
 <g id="Notes">
  <rect height="2200" id="artboard" style="fill:white;opacity:1" width="3300" x="0" y="0"/>
  <line id="" style="fill:none;stroke:black;opacity:1;stroke-width:0.5;" x1="263" x2="3036" y1="292" y2="292"/>
  <text style="stroke:none;fill:black;font-family:-apple-system,&quot;SF Pro Display&quot;,&quot;SF Pro Text&quot;,Helvetica,sans-serif;font-weight:bold;" transform="matrix(1 0 0 1 263 322)">Weight/Scale Variations</text>
  <text style="stroke:none;fill:black;font-family:-apple-system,&quot;SF Pro Display&quot;,&quot;SF Pro Text&quot;,Helvetica,sans-serif;text-anchor:middle;" transform="matrix(1 0 0 1 559.711 322)">Ultralight</text>
  <text style="stroke:none;fill:black;font-family:-apple-system,&quot;SF Pro Display&quot;,&quot;SF Pro Text&quot;,Helvetica,sans-serif;text-anchor:middle;" transform="matrix(1 0 0 1 856.422 322)">Thin</text>
  <text style="stroke:none;fill:black;font-family:-apple-system,&quot;SF Pro Display&quot;,&quot;SF Pro Text&quot;,Helvetica,sans-serif;text-anchor:middle;" transform="matrix(1 0 0 1 1153.13 322)">Light</text>
  <text style="stroke:none;fill:black;font-family:-apple-system,&quot;SF Pro Display&quot;,&quot;SF Pro Text&quot;,Helvetica,sans-serif;text-anchor:middle;" transform="matrix(1 0 0 1 1449.84 322)">Regular</text>
  <text style="stroke:none;fill:black;font-family:-apple-system,&quot;SF Pro Display&quot;,&quot;SF Pro Text&quot;,Helvetica,sans-serif;text-anchor:middle;" transform="matrix(1 0 0 1 1746.56 322)">Medium</text>
  <text style="stroke:none;fill:black;font-family:-apple-system,&quot;SF Pro Display&quot;,&quot;SF Pro Text&quot;,Helvetica,sans-serif;text-anchor:middle;" transform="matrix(1 0 0 1 2043.27 322)">Semibold</text>
  <text style="stroke:none;fill:black;font-family:-apple-system,&quot;SF Pro Display&quot;,&quot;SF Pro Text&quot;,Helvetica,sans-serif;text-anchor:middle;" transform="matrix(1 0 0 1 2339.98 322)">Bold</text>
  <text style="stroke:none;fill:black;font-family:-apple-system,&quot;SF Pro Display&quot;,&quot;SF Pro Text&quot;,Helvetica,sans-serif;text-anchor:middle;" transform="matrix(1 0 0 1 2636.69 322)">Heavy</text>
  <text style="stroke:none;fill:black;font-family:-apple-system,&quot;SF Pro Display&quot;,&quot;SF Pro Text&quot;,Helvetica,sans-serif;text-anchor:middle;" transform="matrix(1 0 0 1 2933.4 322)">Black</text>
  <line id="" style="fill:none;stroke:black;opacity:1;stroke-width:0.5;" x1="263" x2="3036" y1="1903" y2="1903"/>
  <g id="" transform="matrix(1 0 0 1 263 1933)">
   <path d="M9.24805 0.830078C13.5547 0.830078 17.1387-2.74414 17.1387-7.05078C17.1387-11.3574 13.5449-14.9316 9.23828-14.9316C4.94141-14.9316 1.36719-11.3574 1.36719-7.05078C1.36719-2.74414 4.95117 0.830078 9.24805 0.830078ZM9.24805-0.654297C5.70312-0.654297 2.87109-3.49609 2.87109-7.05078C2.87109-10.6055 5.69336-13.4473 9.23828-13.4473C12.793-13.4473 15.6348-10.6055 15.6445-7.05078C15.6543-3.49609 12.8027-0.654297 9.24805-0.654297ZM6.39648-6.31836L8.50586-6.31836L8.50586-4.19922C8.50586-3.75977 8.79883-3.45703 9.22852-3.45703C9.67773-3.45703 9.9707-3.75977 9.9707-4.19922L9.9707-6.31836L12.0996-6.31836C12.5391-6.31836 12.8418-6.61133 12.8418-7.04102C12.8418-7.48047 12.5391-7.7832 12.0996-7.7832L9.9707-7.7832L9.9707-9.89258C9.9707-10.3418 9.67773-10.6445 9.22852-10.6445C8.79883-10.6445 8.50586-10.3418 8.50586-9.89258L8.50586-7.7832L6.39648-7.7832C5.94727-7.7832 5.64453-7.48047 5.64453-7.04102C5.64453-6.61133 5.94727-6.31836 6.39648-6.31836Z"/>
  </g>
  <g id="" transform="matrix(1 0 0 1 281.506 1933)">
   <path d="M11.709 2.91016C17.1582 2.91016 21.6699-1.61133 21.6699-7.05078C21.6699-12.5 17.1484-17.0117 11.6992-17.0117C6.25977-17.0117 1.74805-12.5 1.74805-7.05078C1.74805-1.61133 6.26953 2.91016 11.709 2.91016ZM11.709 1.25C7.09961 1.25 3.41797-2.44141 3.41797-7.05078C3.41797-11.6602 7.08984-15.3516 11.6992-15.3516C16.3086-15.3516 20-11.6602 20.0098-7.05078C20.0195-2.44141 16.3184 1.25 11.709 1.25ZM7.98828-6.23047L10.8789-6.23047L10.8789-3.32031C10.8789-2.83203 11.2109-2.5 11.6895-2.5C12.1777-2.5 12.5195-2.83203 12.5195-3.32031L12.5195-6.23047L15.4297-6.23047C15.918-6.23047 16.25-6.5625 16.25-7.04102C16.25-7.5293 15.918-7.87109 15.4297-7.87109L12.5195-7.87109L12.5195-10.7617C12.5195-11.2695 12.1777-11.6016 11.6895-11.6016C11.2109-11.6016 10.8789-11.2598 10.8789-10.7617L10.8789-7.87109L7.98828-7.87109C7.48047-7.87109 7.14844-7.5293 7.14844-7.04102C7.14844-6.5625 7.49023-6.23047 7.98828-6.23047Z"/>
  </g>
  <g id="" transform="matrix(1 0 0 1 304.924 1933)">
   <path d="M14.9707 5.66406C21.9336 5.66406 27.6953-0.0976562 27.6953-7.05078C27.6953-14.0137 21.9238-19.7754 14.9609-19.7754C8.00781-19.7754 2.25586-14.0137 2.25586-7.05078C2.25586-0.0976562 8.01758 5.66406 14.9707 5.66406ZM14.9707 3.84766C8.93555 3.84766 4.08203-1.01562 4.08203-7.05078C4.08203-13.0957 8.92578-17.9492 14.9609-17.9492C21.0059-17.9492 25.8594-13.0957 25.8691-7.05078C25.8789-1.01562 21.0156 3.84766 14.9707 3.84766ZM10.0586-6.14258L14.0625-6.14258L14.0625-2.12891C14.0625-1.5918 14.4336-1.2207 14.9512-1.2207C15.4883-1.2207 15.8594-1.5918 15.8594-2.12891L15.8594-6.14258L19.8828-6.14258C20.4102-6.14258 20.791-6.51367 20.791-7.03125C20.791-7.56836 20.4199-7.94922 19.8828-7.94922L15.8594-7.94922L15.8594-11.9531C15.8594-12.5098 15.4883-12.8809 14.9512-12.8809C14.4336-12.8809 14.0625-12.5 14.0625-11.9531L14.0625-7.94922L10.0586-7.94922C9.50195-7.94922 9.13086-7.56836 9.13086-7.03125C9.13086-6.51367 9.51172-6.14258 10.0586-6.14258Z"/>
  </g>
  <text style="stroke:none;fill:black;font-family:-apple-system,&quot;SF Pro Display&quot;,&quot;SF Pro Text&quot;,Helvetica,sans-serif;font-weight:bold;" transform="matrix(1 0 0 1 263 1953)">Design Variations</text>
  <text style="stroke:none;fill:black;font-family:-apple-system,&quot;SF Pro Display&quot;,&quot;SF Pro Text&quot;,Helvetica,sans-serif;" transform="matrix(1 0 0 1 263 1971)">Symbols are supported in up to nine weights and three scales.</text>
  <text style="stroke:none;fill:black;font-family:-apple-system,&quot;SF Pro Display&quot;,&quot;SF Pro Text&quot;,Helvetica,sans-serif;" transform="matrix(1 0 0 1 263 1989)">For optimal layout with text and other symbols, vertically align</text>
  <text style="stroke:none;fill:black;font-family:-apple-system,&quot;SF Pro Display&quot;,&quot;SF Pro Text&quot;,Helvetica,sans-serif;" transform="matrix(1 0 0 1 263 2007)">symbols with the adjacent text.</text>
  <line id="" style="fill:none;stroke:#00AEEF;stroke-width:0.5;opacity:1.0;" x1="776" x2="776" y1="1919" y2="1933"/>
  <g id="" transform="matrix(1 0 0 1 776 1933)">
   <path d="M3.31055 0.126953C3.82812 0.126953 4.08203-0.0683594 4.26758-0.605469L5.52734-4.0625L11.2891-4.0625L12.5488-0.605469C12.7344-0.0683594 12.9883 0.126953 13.4961 0.126953C14.0137 0.126953 14.3457-0.185547 14.3457-0.673828C14.3457-0.839844 14.3164-0.986328 14.2383-1.20117L9.6582-13.3887C9.43359-13.9941 9.0332-14.2871 8.4082-14.2871C7.80273-14.2871 7.39258-13.9941 7.17773-13.3984L2.59766-1.19141C2.51953-0.976562 2.49023-0.830078 2.49023-0.664062C2.49023-0.175781 2.80273 0.126953 3.31055 0.126953ZM6.00586-5.53711L8.37891-12.1094L8.42773-12.1094L10.8008-5.53711Z"/>
  </g>
  <line id="" style="fill:none;stroke:#00AEEF;stroke-width:0.5;opacity:1.0;" x1="792.836" x2="792.836" y1="1919" y2="1933"/>
  <text style="stroke:none;fill:black;font-family:-apple-system,&quot;SF Pro Display&quot;,&quot;SF Pro Text&quot;,Helvetica,sans-serif;font-weight:bold;" transform="matrix(1 0 0 1 776 1953)">Margins</text>
  <text style="stroke:none;fill:black;font-family:-apple-system,&quot;SF Pro Display&quot;,&quot;SF Pro Text&quot;,Helvetica,sans-serif;" transform="matrix(1 0 0 1 776 1971)">Leading and trailing margins on the left and right side of each symbol</text>
  <text style="stroke:none;fill:black;font-family:-apple-system,&quot;SF Pro Display&quot;,&quot;SF Pro Text&quot;,Helvetica,sans-serif;" transform="matrix(1 0 0 1 776 1989)">can be adjusted by modifying the x-location of the margin guidelines.</text>
  <text style="stroke:none;fill:black;font-family:-apple-system,&quot;SF Pro Display&quot;,&quot;SF Pro Text&quot;,Helvetica,sans-serif;" transform="matrix(1 0 0 1 776 2007)">Modifications are automatically applied proportionally to all</text>
  <text style="stroke:none;fill:black;font-family:-apple-system,&quot;SF Pro Display&quot;,&quot;SF Pro Text&quot;,Helvetica,sans-serif;" transform="matrix(1 0 0 1 776 2025)">scales and weights.</text>
  <g id="" transform="matrix(1 0 0 1 1289 1933)">
   <path d="M2.8418 1.86523L4.54102 3.57422C5.40039 4.44336 6.38672 4.38477 7.31445 3.35938L17.4902-7.85156C17.7539-7.76367 18.0273-7.7832 18.3398-7.8418L19.4043-8.03711L20.0684-7.36328L20.0293-6.80664C19.9902-6.30859 20.1172-5.92773 20.6055-5.44922L21.3672-4.70703C21.8457-4.22852 22.4609-4.19922 22.9297-4.66797L25.8398-7.58789C26.3086-8.05664 26.2891-8.65234 25.8105-9.13086L25.0391-9.89258C24.5605-10.3711 24.1895-10.5273 23.7109-10.4883L23.1348-10.4395L22.4902-11.0742L22.7344-12.1973C22.8613-12.7637 22.7051-13.2031 22.1191-13.7891L19.9219-15.9766C16.582-19.2969 12.1484-19.2188 9.25781-16.3281C8.83789-15.918 8.80859-15.3418 9.04297-14.9512C9.27734-14.5898 9.73633-14.3555 10.3809-14.5215C11.8457-14.8633 13.3691-14.9219 14.7949-13.9844L14.209-12.5293C14.0137-12.0508 13.9844-11.6504 14.1113-11.2891L3.04688-0.898438C2.06055 0.0195312 1.98242 0.996094 2.8418 1.86523ZM10.752-15.957C13.1836-17.7344 16.4746-17.4316 18.7012-15.2051L21.1328-12.793C21.3672-12.5586 21.4062-12.373 21.3379-12.0312L21.0156-10.5469L22.5195-9.0625L23.5059-9.12109C23.7598-9.13086 23.8379-9.11133 24.0332-8.91602L24.6094-8.33984L22.168-5.89844L21.5918-6.47461C21.3965-6.66992 21.3672-6.74805 21.377-7.01172L21.4453-7.98828L19.9512-9.47266L18.4277-9.21875C18.1055-9.15039 17.959-9.17969 17.7148-9.41406L15.7129-11.416C15.459-11.6504 15.4297-11.8164 15.5859-12.1875L16.4648-14.2773C14.9023-15.7324 12.8711-16.3574 10.8398-15.7617C10.6836-15.7227 10.625-15.8496 10.752-15.957ZM5.27344 2.30469L4.10156 1.14258C3.63281 0.683594 3.74023 0.341797 4.14062-0.0195312L14.9512-10.1953L16.416-8.71094L6.42578 2.27539C6.07422 2.67578 5.74219 2.77344 5.27344 2.30469Z"/>
  </g>
  <text style="stroke:none;fill:black;font-family:-apple-system,&quot;SF Pro Display&quot;,&quot;SF Pro Text&quot;,Helvetica,sans-serif;font-weight:bold;" transform="matrix(1 0 0 1 1289 1953)">Exporting</text>
  <text style="stroke:none;fill:black;font-family:-apple-system,&quot;SF Pro Display&quot;,&quot;SF Pro Text&quot;,Helvetica,sans-serif;" transform="matrix(1 0 0 1 1289 1971)">Symbols should be outlined when exporting to ensure the</text>
  <text style="stroke:none;fill:black;font-family:-apple-system,&quot;SF Pro Display&quot;,&quot;SF Pro Text&quot;,Helvetica,sans-serif;" transform="matrix(1 0 0 1 1289 1989)">design is preserved when submitting to Xcode.</text>
  <text id="template-version" style="stroke:none;fill:black;font-family:-apple-system,&quot;SF Pro Display&quot;,&quot;SF Pro Text&quot;,Helvetica,sans-serif;text-anchor:end;" transform="matrix(1 0 0 1 3036 1933)">Template v.2.0</text>
  <text style="stroke:none;fill:black;font-family:-apple-system,&quot;SF Pro Display&quot;,&quot;SF Pro Text&quot;,Helvetica,sans-serif;text-anchor:end;" transform="matrix(1 0 0 1 3036 1951)">Requires Xcode 12 or greater</text>
  <text style="stroke:none;fill:black;font-family:-apple-system,&quot;SF Pro Display&quot;,&quot;SF Pro Text&quot;,Helvetica,sans-serif;text-anchor:end;" transform="matrix(1 0 0 1 3036 1969)">Generated from doc.fill</text>
  <text style="stroke:none;fill:black;font-family:-apple-system,&quot;SF Pro Display&quot;,&quot;SF Pro Text&quot;,Helvetica,sans-serif;text-anchor:end;" transform="matrix(1 0 0 1 3036 1987)">Typeset at 100 points</text>
  <text style="stroke:none;fill:black;font-family:-apple-system,&quot;SF Pro Display&quot;,&quot;SF Pro Text&quot;,Helvetica,sans-serif;" transform="matrix(1 0 0 1 263 726)">Small</text>
  <text style="stroke:none;fill:black;font-family:-apple-system,&quot;SF Pro Display&quot;,&quot;SF Pro Text&quot;,Helvetica,sans-serif;" transform="matrix(1 0 0 1 263 1156)">Medium</text>
  <text style="stroke:none;fill:black;font-family:-apple-system,&quot;SF Pro Display&quot;,&quot;SF Pro Text&quot;,Helvetica,sans-serif;" transform="matrix(1 0 0 1 263 1586)">Large</text>
 </g>
 <g id="Guides">
  <g id="H-reference" style="fill:#27AAE1;stroke:none;" transform="matrix(1 0 0 1 339 696)">
   <path d="M0.976562 0L3.66211 0L12.9883-24.4629L45.752-24.4629L55.127 0L57.7637 0L30.6152-70.459L28.125-70.459ZM29.3457-67.1387L29.4434-67.1387L44.873-26.709L13.8672-26.709Z"/>
  </g>
  <line id="Baseline-S" style="fill:none;stroke:#27AAE1;opacity:1;stroke-width:0.5;" x1="263" x2="3036" y1="696" y2="696"/>
  <line id="Capline-S" style="fill:none;stroke:#27AAE1;opacity:1;stroke-width:0.5;" x1="263" x2="3036" y1="625.541" y2="625.541"/>
  <g id="H-reference" style="fill:#27AAE1;stroke:none;" transform="matrix(1 0 0 1 339 1126)">
   <path d="M0.976562 0L3.66211 0L12.9883-24.4629L45.752-24.4629L55.127 0L57.7637 0L30.6152-70.459L28.125-70.459ZM29.3457-67.1387L29.4434-67.1387L44.873-26.709L13.8672-26.709Z"/>
  </g>
  <line id="Baseline-M" style="fill:none;stroke:#27AAE1;opacity:1;stroke-width:0.5;" x1="263" x2="3036" y1="1126" y2="1126"/>
  <line id="Capline-M" style="fill:none;stroke:#27AAE1;opacity:1;stroke-width:0.5;" x1="263" x2="3036" y1="1055.54" y2="1055.54"/>
  <g id="H-reference" style="fill:#27AAE1;stroke:none;" transform="matrix(1 0 0 1 339 1556)">
   <path d="M0.976562 0L3.66211 0L12.9883-24.4629L45.752-24.4629L55.127 0L57.7637 0L30.6152-70.459L28.125-70.459ZM29.3457-67.1387L29.4434-67.1387L44.873-26.709L13.8672-26.709Z"/>
  </g>
  <line id="Baseline-L" style="fill:none;stroke:#27AAE1;opacity:1;stroke-width:0.5;" x1="263" x2="3036" y1="1556" y2="1556"/>
  <line id="Capline-L" style="fill:none;stroke:#27AAE1;opacity:1;stroke-width:0.5;" x1="263" x2="3036" y1="1485.54" y2="1485.54"/>
  <line id="left-margin" style="fill:none;stroke:#00AEEF;stroke-width:0.5;opacity:1.0;" x1="1396.33" x2="1396.33" y1="1030.79" y2="1150.12"/>
  <line id="right-margin" style="fill:none;stroke:#00AEEF;stroke-width:0.5;opacity:1.0;" x1="1503.36" x2="1503.36" y1="1030.79" y2="1150.12"/>
 </g>
 <g id="Symbols">
  <g id="Black-L" transform="matrix(1 0 0 1 2859.65 1556)">
   <path d="M39.8926 35.2539L107.617 35.2539C122.803 35.2539 131.445 26.5625 131.445 11.3281L131.445-41.9922L79.1992-41.9922C71.7773-41.9922 67.9199-45.8008 67.9199-53.2227L67.9199-105.664L39.8926-105.664C24.707-105.664 16.0645-96.9727 16.0645-81.7383L16.0645 11.3281C16.0645 26.5625 24.707 35.2539 39.8926 35.2539ZM83.4473-53.3691L130.957-53.3691C130.811-57.0801 127.783-60.5957 123.535-64.8926L90.5762-98.0469C86.6699-102.002 83.1055-104.98 79.3457-105.225L79.3457-57.4219C79.3945-54.7363 80.7129-53.3691 83.4473-53.3691Z"/>
  </g>
  <g id="Heavy-L" transform="matrix(1 0 0 1 2564.18 1556)">
   <path d="M38.7207 34.4727L106.348 34.4727C120.898 34.4727 128.955 26.3672 128.955 11.7188L128.955-42.8223L78.3691-42.8223C70.8984-42.8223 67.0898-46.6309 67.0898-54.0527L67.0898-104.932L38.7207-104.932C24.1699-104.932 16.0645-96.7773 16.0645-82.1777L16.0645 11.7188C16.0645 26.3672 24.1211 34.4727 38.7207 34.4727ZM81.6895-53.3691L128.418-53.3691C128.174-56.7383 125.488-59.9609 121.631-63.8184L87.9395-97.8027C84.3262-101.465 81.0547-104.102 77.6367-104.395L77.6367-57.3242C77.6855-54.6875 79.0039-53.3691 81.6895-53.3691Z"/>
  </g>
  <g id="Bold-L" transform="matrix(1 0 0 1 2268.86 1556)">
   <path d="M37.4023 33.6426L104.883 33.6426C118.701 33.6426 126.172 26.123 126.172 12.207L126.172-43.75L77.4414-43.75C69.9219-43.75 66.1621-47.5098 66.1621-54.9805L66.1621-104.053L37.4023-104.053C23.584-104.053 16.0645-96.5332 16.0645-82.6172L16.0645 12.207C16.0645 26.123 23.5352 33.6426 37.4023 33.6426ZM79.6875-53.3203L125.537-53.3203C125.244-56.3477 122.949-59.1797 119.531-62.6465L84.9609-97.5586C81.7383-100.83 78.8086-103.174 75.7812-103.467L75.7812-57.2266C75.7812-54.6387 77.0996-53.3203 79.6875-53.3203Z"/>
  </g>
  <g id="Semibold-L" transform="matrix(1 0 0 1 1973.1 1556)">
   <path d="M36.4746 33.0566L103.857 33.0566C117.188 33.0566 124.268 25.9277 124.268 12.5L124.268-44.3848L76.7578-44.3848C69.2383-44.3848 65.5273-48.0957 65.5273-55.6641L65.5273-103.516L36.4746-103.516C23.1445-103.516 16.0645-96.3867 16.0645-82.9102L16.0645 12.5C16.0645 25.9766 23.0957 33.0566 36.4746 33.0566ZM78.3203-53.3203L123.584-53.3203C123.242-56.0547 121.143-58.6914 118.066-61.8164L82.9102-97.4121C79.9316-100.391 77.1973-102.49 74.4629-102.832L74.4629-57.1777C74.4629-54.5898 75.7324-53.3203 78.3203-53.3203Z"/>
  </g>
  <g id="Medium-L" transform="matrix(1 0 0 1 1677.12 1556)">
   <path d="M35.791 32.666L103.076 32.666C116.064 32.666 122.803 25.8301 122.803 12.7441L122.803-44.873L76.2695-44.873C68.7012-44.873 65.0391-48.5352 65.0391-56.1523L65.0391-103.076L35.791-103.076C22.8516-103.076 16.0645-96.2402 16.0645-83.1543L16.0645 12.7441C16.0645 25.8789 22.8027 32.666 35.791 32.666ZM77.2949-53.3203L122.07-53.3203C121.729-55.8594 119.824-58.3008 116.943-61.2305L81.3477-97.2656C78.5645-100.098 76.0254-102.002 73.4863-102.344L73.4863-57.1289C73.4863-54.541 74.7559-53.3203 77.2949-53.3203Z"/>
  </g>
  <g id="Regular-L" transform="matrix(1 0 0 1 1381.36 1556)">
   <path d="M34.8633 32.0801L102.1 32.0801C114.6 32.0801 120.898 25.6348 120.898 13.0859L120.898-45.5078L75.6348-45.5078C68.0176-45.5078 64.4043-49.1699 64.4043-56.7871L64.4043-102.49L34.8633-102.49C22.4609-102.49 16.0645-96.0938 16.0645-83.4961L16.0645 13.0859C16.0645 25.6836 22.3633 32.0801 34.8633 32.0801ZM75.9277-53.3203L120.117-53.3203C119.727-55.6152 118.066-57.8125 115.479-60.4004L79.2969-97.0703C76.8066-99.6582 74.4629-101.367 72.2168-101.758L72.2168-57.0312C72.2168-54.541 73.4375-53.3203 75.9277-53.3203Z"/>
  </g>
  <g id="Light-L" transform="matrix(1 0 0 1 1085.43 1556)">
   <path d="M33.9355 31.7871L101.514 31.7871C113.281 31.7871 119.336 25.6348 119.336 13.7695L119.336-46.6797L74.6094-46.6797C67.5781-46.6797 64.209-50.0977 64.209-57.0801L64.209-102.1L33.9355-102.1C22.2168-102.1 16.0645-95.9961 16.0645-84.1309L16.0645 13.7695C16.0645 25.6836 22.1191 31.7871 33.9355 31.7871ZM75.0488-53.3691L118.457-53.3691C118.164-55.2246 116.699-56.9824 114.697-59.0332L76.5625-97.4609C74.6094-99.4629 72.7051-100.928 70.8984-101.221L70.8984-57.5195C70.8984-54.6875 72.2656-53.3691 75.0488-53.3691Z"/>
  </g>
  <g id="Thin-L" transform="matrix(1 0 0 1 789.747 1556)">
   <path d="M32.666 31.3477L100.732 31.3477C111.572 31.3477 117.285 25.6348 117.285 14.7461L117.285-48.1934L73.1934-48.1934C67.041-48.1934 63.9648-51.3672 63.9648-57.5195L63.9648-101.611L32.666-101.611C21.9238-101.611 16.0645-95.8496 16.0645-84.9609L16.0645 14.7461C16.0645 25.6348 21.7773 31.3477 32.666 31.3477ZM73.877-53.418L116.26-53.418C116.113-54.6875 114.893-55.9082 113.672-57.1777L72.9004-97.9492C71.6797-99.2188 70.4102-100.342 69.1895-100.586L69.1895-58.1055C69.1895-54.9316 70.7031-53.418 73.877-53.418Z"/>
  </g>
  <g id="Ultralight-L" transform="matrix(1 0 0 1 493.549 1556)">
   <path d="M31.9824 31.1523L100.293 31.1523C110.693 31.1523 116.26 25.5859 116.26 15.2344L116.26-49.0234L72.5098-49.0234C66.748-49.0234 63.8672-52.002 63.8672-57.7148L63.8672-101.318L31.9824-101.318C21.7773-101.318 16.0645-95.8008 16.0645-85.4004L16.0645 15.2344C16.0645 25.5859 21.6309 31.1523 31.9824 31.1523ZM73.291-53.4668L115.186-53.4668C115.039-54.4434 113.965-55.3711 113.135-56.2012L71.0449-98.1934C70.2148-99.0723 69.1895-100 68.3105-100.244L68.3105-58.3984C68.3105-55.0293 69.873-53.4668 73.291-53.4668Z"/>
  </g>
  <g id="Black-M" transform="matrix(1 0 0 1 2874.98 1126)">
   <path d="M31.9824 20.2148L84.8633 20.2148C97.1191 20.2148 104.395 12.9395 104.395 0.683594L104.395-39.9414L61.9141-39.9414C56.5918-39.9414 53.6621-42.8711 53.6621-48.1934L53.6621-90.625L31.9824-90.625C19.7266-90.625 12.4512-83.3496 12.4512-71.0938L12.4512 0.683594C12.4512 12.9395 19.7266 20.2148 31.9824 20.2148ZM66.6016-49.3652L104.102-49.3652C104.053-52.4414 101.416-55.3711 97.9004-58.8867L72.3145-84.4238C69.1406-87.5977 66.2109-90.1855 63.0859-90.2832L63.0859-52.7832C63.1348-50.4883 64.2578-49.3652 66.6016-49.3652Z"/>
  </g>
  <g id="Heavy-M" transform="matrix(1 0 0 1 2579.41 1126)">
   <path d="M30.957 19.4824L83.5938 19.4824C95.3125 19.4824 102.1 12.6953 102.1 0.927734L102.1-40.5762L61.2793-40.5762C55.7129-40.5762 52.832-43.5059 52.832-49.0234L52.832-89.8926L30.957-89.8926C19.1895-89.8926 12.4512-83.1055 12.4512-71.3379L12.4512 0.927734C12.4512 12.7441 19.1895 19.4824 30.957 19.4824ZM64.8926-49.3164L101.709-49.3164C101.611-52.1484 99.2676-54.834 95.9961-58.1055L70.1172-84.082C67.1875-87.0605 64.4531-89.3555 61.5723-89.5508L61.5723-52.5879C61.6211-50.3906 62.6953-49.3164 64.8926-49.3164Z"/>
  </g>
  <g id="Bold-M" transform="matrix(1 0 0 1 2284 1126)">
   <path d="M29.7852 18.6523L82.1777 18.6523C93.3105 18.6523 99.5117 12.4512 99.5117 1.2207L99.5117-41.2598L60.5957-41.2598C54.7852-41.2598 51.8555-44.1895 51.8555-50L51.8555-89.1113L29.7852-89.1113C18.6035-89.1113 12.4512-82.8613 12.4512-71.6797L12.4512 1.2207C12.4512 12.5 18.6035 18.6523 29.7852 18.6523ZM62.9883-49.2676L99.0723-49.2676C98.877-51.8555 96.8262-54.248 93.9453-57.2266L67.6758-83.6914C64.9414-86.4258 62.4512-88.4766 59.8633-88.6719L59.8633-52.3438C59.9121-50.293 60.9375-49.2676 62.9883-49.2676Z"/>
  </g>
  <g id="Semibold-M" transform="matrix(1 0 0 1 1988.19 1126)">
   <path d="M29.0039 18.1152L81.1523 18.1152C91.9434 18.1152 97.7051 12.2559 97.7051 1.41602L97.7051-41.6992L60.1074-41.6992C54.1016-41.6992 51.1719-44.6777 51.1719-50.6348L51.1719-88.5254L29.0039-88.5254C18.2129-88.5254 12.4512-82.7148 12.4512-71.875L12.4512 1.41602C12.4512 12.3047 18.2129 18.1152 29.0039 18.1152ZM61.6699-49.2676L97.2168-49.2676C96.9727-51.6113 95.166-53.8574 92.4805-56.5918L66.0156-83.3984C63.4277-86.0352 61.084-87.8418 58.7402-88.0859L58.7402-52.1484C58.7402-50.1953 59.7168-49.2676 61.6699-49.2676Z"/>
  </g>
  <g id="Medium-M" transform="matrix(1 0 0 1 1692.16 1126)">
   <path d="M28.3691 17.6758L80.4199 17.6758C90.918 17.6758 96.3379 12.1582 96.3379 1.61133L96.3379-42.0898L59.7168-42.0898C53.6133-42.0898 50.6836-45.0195 50.6836-51.123L50.6836-88.1348L28.3691-88.1348C17.9199-88.1348 12.4512-82.6172 12.4512-72.0215L12.4512 1.61133C12.4512 12.1582 17.9199 17.6758 28.3691 17.6758ZM60.6445-49.2188L95.8496-49.2188C95.5566-51.4648 93.9453-53.5645 91.4062-56.1523L64.6973-83.2031C62.2559-85.6934 60.0586-87.3535 57.8125-87.6465L57.8125-52.0508C57.8613-50.1465 58.7891-49.2188 60.6445-49.2188Z"/>
  </g>
  <g id="Regular-M" transform="matrix(1 0 0 1 1396.33 1126)">
   <path d="M27.5879 17.0898L79.4434 17.0898C89.5508 17.0898 94.5801 11.9629 94.5801 1.80664L94.5801-42.5293L59.2285-42.5293C52.9785-42.5293 50-45.5078 50-51.7578L50-87.5977L27.5879-87.5977C17.5293-87.5977 12.4512-82.4219 12.4512-72.2656L12.4512 1.80664C12.4512 12.0117 17.4805 17.0898 27.5879 17.0898ZM59.375-49.2188L93.9941-49.2188C93.7012-51.2207 92.2852-53.1738 89.9414-55.5664L63.0371-82.959C60.7422-85.3027 58.7402-86.7188 56.6895-87.0605L56.6895-51.8555C56.6895-50.0977 57.5684-49.2188 59.375-49.2188Z"/>
  </g>
  <g id="Light-M" transform="matrix(1 0 0 1 1100.33 1126)">
   <path d="M26.709 16.8457L78.9062 16.8457C88.3789 16.8457 93.1641 11.9629 93.1641 2.44141L93.1641-43.5547L58.3008-43.5547C52.5879-43.5547 49.8535-46.3379 49.8535-52.0508L49.8535-87.207L26.709-87.207C17.334-87.207 12.4512-82.373 12.4512-72.8516L12.4512 2.44141C12.4512 11.9629 17.2852 16.8457 26.709 16.8457ZM58.5449-49.2676L92.5293-49.2676C92.2852-50.8789 91.0645-52.4414 89.2578-54.2969L60.5469-83.3008C58.7891-85.1074 57.1289-86.3281 55.5176-86.6211L55.5176-52.2949C55.5176-50.2441 56.543-49.2676 58.5449-49.2676Z"/>
  </g>
  <g id="Thin-M" transform="matrix(1 0 0 1 804.518 1126)">
   <path d="M25.5859 16.4551L78.2227 16.4551C86.8164 16.4551 91.3574 11.9141 91.3574 3.27148L91.3574-44.9707L57.0312-44.9707C52.0996-44.9707 49.6582-47.4609 49.6582-52.3926L49.6582-86.7676L25.5859-86.7676C17.041-86.7676 12.4512-82.2266 12.4512-73.584L12.4512 3.27148C12.4512 11.9629 16.9434 16.4551 25.5859 16.4551ZM57.5195-49.3164L90.5762-49.3164C90.4297-50.4395 89.4531-51.4648 88.3301-52.6367L57.3242-83.7402C56.2012-84.8633 55.0781-85.791 54.0039-86.0352L54.0039-52.832C54.0039-50.4395 55.127-49.3164 57.5195-49.3164Z"/>
  </g>
  <g id="Ultralight-M" transform="matrix(1 0 0 1 508.295 1126)">
   <path d="M25 16.2598L77.8809 16.2598C86.0352 16.2598 90.3809 11.9141 90.3809 3.71094L90.3809-45.6543L56.3965-45.6543C51.8066-45.6543 49.5117-47.998 49.5117-52.5879L49.5117-86.5234L25-86.5234C16.9434-86.5234 12.4512-82.1777 12.4512-73.9746L12.4512 3.71094C12.4512 11.9141 16.7969 16.2598 25 16.2598ZM56.9824-49.3652L89.5996-49.3652C89.4531-50.1953 88.623-50.9766 87.8418-51.7578L55.6152-83.9355C54.834-84.7168 54.0039-85.5469 53.2227-85.7422L53.2227-53.125C53.2227-50.5371 54.3945-49.3652 56.9824-49.3652Z"/>
  </g>
  <g id="Black-S" transform="matrix(1 0 0 1 2887.7 696)">
   <path d="M25 8.1543L66.4062 8.1543C75.9766 8.1543 81.6406 2.49023 81.6406-7.08008L81.6406-38.9648L48.4863-38.9648C44.2871-38.9648 41.9922-41.2598 41.9922-45.459L41.9922-78.5645L25-78.5645C15.4297-78.5645 9.76562-72.9004 9.76562-63.3301L9.76562-7.08008C9.76562 2.49023 15.4297 8.1543 25 8.1543ZM52.0508-46.2891L81.3965-46.2891C81.3477-48.6816 79.2969-50.9766 76.5625-53.7109L56.543-73.7305C54.0527-76.2207 51.7578-78.2227 49.3164-78.3203L49.3164-48.9746C49.3652-47.168 50.2441-46.2891 52.0508-46.2891Z"/>
  </g>
  <g id="Heavy-S" transform="matrix(1 0 0 1 2591.79 696)">
   <path d="M24.3164 7.61719L65.4785 7.61719C74.7559 7.61719 80.0293 2.29492 80.0293-6.93359L80.0293-39.3066L48.0957-39.3066C43.6523-39.3066 41.3574-41.6504 41.3574-46.0449L41.3574-78.0762L24.3164-78.0762C15.0391-78.0762 9.76562-72.7539 9.76562-63.4766L9.76562-6.93359C9.76562 2.34375 15.0391 7.61719 24.3164 7.61719ZM50.8301-46.2402L79.7363-46.2402C79.6387-48.4863 77.7832-50.6836 75.1953-53.2715L55.127-73.4375C52.7832-75.8301 50.5859-77.6367 48.291-77.7832L48.291-48.7793C48.3398-47.0703 49.1699-46.2402 50.8301-46.2402Z"/>
  </g>
  <g id="Bold-S" transform="matrix(1 0 0 1 2295.98 696)">
   <path d="M23.5352 7.03125L64.4531 7.03125C73.3398 7.03125 78.2227 2.09961 78.2227-6.78711L78.2227-39.6973L47.7051-39.6973C42.9688-39.6973 40.625-42.041 40.625-46.7285L40.625-77.4902L23.5352-77.4902C14.6484-77.4902 9.76562-72.5586 9.76562-63.623L9.76562-6.78711C9.76562 2.14844 14.6484 7.03125 23.5352 7.03125ZM49.4629-46.2402L77.8809-46.2402C77.7344-48.291 76.123-50.293 73.6816-52.7344L53.5645-73.0957C51.3184-75.3906 49.2676-77.002 47.168-77.1973L47.168-48.5352C47.168-46.9727 47.9492-46.2402 49.4629-46.2402Z"/>
  </g>
  <g id="Semibold-S" transform="matrix(1 0 0 1 1999.91 696)">
   <path d="M22.998 6.64062L63.7695 6.64062C72.4121 6.64062 76.9531 2.00195 76.9531-6.68945L76.9531-39.9902L47.3633-39.9902C42.5293-39.9902 40.1367-42.334 40.1367-47.2168L40.1367-77.0996L22.998-77.0996C14.3555-77.0996 9.76562-72.4609 9.76562-63.7695L9.76562-6.68945C9.76562 2.00195 14.3555 6.64062 22.998 6.64062ZM48.5352-46.1914L76.6113-46.1914C76.416-48.1934 74.9512-50.0488 72.6562-52.3926L52.4902-72.8516C50.293-75.0488 48.3398-76.5625 46.3867-76.7578L46.3867-48.3398C46.3867-46.9238 47.1191-46.1914 48.5352-46.1914Z"/>
  </g>
  <g id="Medium-S" transform="matrix(1 0 0 1 1703.66 696)">
   <path d="M22.5586 6.29883L63.2324 6.29883C71.6797 6.29883 76.0254 1.9043 76.0254-6.64062L76.0254-40.1855L47.168-40.1855C42.1387-40.1855 39.7461-42.5781 39.7461-47.5586L39.7461-76.8066L22.5586-76.8066C14.1113-76.8066 9.76562-72.3633 9.76562-63.8672L9.76562-6.64062C9.76562 1.9043 14.1113 6.29883 22.5586 6.29883ZM47.8027-46.1914L75.6348-46.1914C75.3906-48.0957 74.0723-49.9023 71.875-52.0996L51.6602-72.7051C49.5605-74.8535 47.6562-76.2207 45.752-76.4648L45.752-48.2422C45.752-46.875 46.4844-46.1914 47.8027-46.1914Z"/>
  </g>
  <g id="Regular-S" transform="matrix(1 0 0 1 1407.56 696)">
   <path d="M22.0215 5.9082L62.5 5.9082C70.7031 5.9082 74.8047 1.75781 74.8047-6.54297L74.8047-40.4297L46.875-40.4297C41.6992-40.4297 39.2578-42.8711 39.2578-48.0469L39.2578-76.416L22.0215-76.416C13.8184-76.416 9.76562-72.2656 9.76562-63.9648L9.76562-6.54297C9.76562 1.80664 13.8184 5.9082 22.0215 5.9082ZM46.875-46.1426L74.3652-46.1426C74.1211-47.9492 72.9004-49.6582 70.8496-51.7578L50.5859-72.4609C48.584-74.5117 46.7773-75.7812 44.9707-76.0742L44.9707-48.0469C44.9707-46.7773 45.6543-46.1426 46.875-46.1426Z"/>
  </g>
  <g id="Light-S" transform="matrix(1 0 0 1 1111.48 696)">
   <path d="M21.2891 5.66406L62.0605 5.66406C69.6777 5.66406 73.5352 1.75781 73.5352-5.95703L73.5352-41.3574L46.0449-41.3574C41.3574-41.3574 39.1113-43.6035 39.1113-48.291L39.1113-76.123L21.2891-76.123C13.6719-76.123 9.76562-72.168 9.76562-64.4531L9.76562-5.95703C9.76562 1.75781 13.623 5.66406 21.2891 5.66406ZM46.1914-46.1914L73.0957-46.1914C72.8516-47.6562 71.8262-48.9746 70.2148-50.6348L48.3887-72.7539C46.8262-74.3652 45.3613-75.4395 43.9453-75.6348L43.9453-48.4375C43.9453-46.9238 44.6777-46.1914 46.1914-46.1914Z"/>
  </g>
  <g id="Thin-S" transform="matrix(1 0 0 1 815.578 696)">
   <path d="M20.2637 5.32227L61.4258 5.32227C68.3594 5.32227 71.9238 1.70898 71.9238-5.22461L71.9238-42.5781L44.9219-42.5781C40.918-42.5781 38.9648-44.5801 38.9648-48.6328L38.9648-75.6836L20.2637-75.6836C13.4277-75.6836 9.76562-72.0703 9.76562-65.1367L9.76562-5.22461C9.76562 1.75781 13.3789 5.32227 20.2637 5.32227ZM45.2637-46.2402L71.3379-46.2402C71.1914-47.2168 70.4102-48.1445 69.3848-49.1699L45.5078-73.1445C44.5312-74.1699 43.5547-74.9512 42.627-75.1465L42.627-48.9258C42.627-47.1191 43.457-46.2402 45.2637-46.2402Z"/>
  </g>
  <g id="Ultralight-S" transform="matrix(1 0 0 1 519.281 696)">
   <path d="M19.7266 5.17578L61.084 5.17578C67.627 5.17578 71.0938 1.70898 71.0938-4.83398L71.0938-43.2129L44.3848-43.2129C40.6738-43.2129 38.8184-45.1172 38.8184-48.7793L38.8184-75.4883L19.7266-75.4883C13.3301-75.4883 9.76562-72.0215 9.76562-65.4785L9.76562-4.83398C9.76562 1.70898 13.2324 5.17578 19.7266 5.17578ZM44.7754-46.2891L70.459-46.2891C70.3613-47.0215 69.6289-47.7051 68.9453-48.4375L44.043-73.3398C43.3594-74.0723 42.5781-74.707 41.8945-74.8535L41.8945-49.1699C41.8945-47.2168 42.8223-46.2891 44.7754-46.2891Z"/>
  </g>
 </g>
</svg>
